<svg width="504" height="163" viewBox="0 0 504 163" fill="none" xmlns="http://www.w3.org/2000/svg">
<path d="M8 159.359V4.44087H109.939V29.4491H39.0926V69.5065H95.7256V93.8507H39.0926V159.359H8Z" fill="white"/>
<path d="M165.412 162.015C154.307 162.015 144.239 159.58 135.207 154.711C126.324 149.843 119.217 143.056 113.887 134.351C108.705 125.646 106.113 115.687 106.113 104.474C106.113 93.113 108.705 83.154 113.887 74.5966C119.217 65.8917 126.398 59.1048 135.429 54.236C144.461 49.3671 154.455 46.9327 165.412 46.9327C176.516 46.9327 186.51 49.3671 195.394 54.236C204.425 59.1048 211.532 65.8917 216.714 74.5966C222.045 83.154 224.71 93.113 224.71 104.474C224.71 115.687 222.045 125.646 216.714 134.351C211.532 143.056 204.425 149.843 195.394 154.711C186.51 159.58 176.516 162.015 165.412 162.015ZM165.412 135.236C170.446 135.236 175.035 134.129 179.181 131.916C183.327 129.556 186.584 126.088 188.953 121.515C191.47 116.941 192.729 111.261 192.729 104.474C192.729 97.6868 191.47 92.0065 188.953 87.4327C186.436 82.8589 183.105 79.4655 178.959 77.2524C174.961 74.8917 170.52 73.7114 165.634 73.7114C160.6 73.7114 156.01 74.8917 151.864 77.2524C147.718 79.4655 144.387 82.8589 141.87 87.4327C139.353 91.8589 138.094 97.5392 138.094 104.474C138.094 111.261 139.279 116.941 141.648 121.515C144.165 126.088 147.496 129.556 151.642 131.916C155.788 134.129 160.377 135.236 165.412 135.236Z" fill="white"/>
<path d="M237.407 159.359V0.0146484H268.5V159.359H237.407Z" fill="white"/>
<path d="M331.554 162.015C316.748 162.015 304.607 158.547 295.131 151.613C285.655 144.679 280.325 135.605 279.141 124.392H310.9C311.936 128.67 314.453 132.138 318.451 134.793C322.448 137.302 327.186 138.556 332.664 138.556C338.735 138.556 343.325 137.523 346.434 135.457C349.691 133.244 351.32 130.588 351.32 127.49C351.32 124.982 350.136 122.99 347.767 121.515C345.398 119.892 341.326 118.785 335.552 118.195C333.479 117.9 330.592 117.457 326.89 116.867C323.337 116.277 320.449 115.761 318.229 115.318C312.01 114.138 306.31 112.22 301.128 109.564C296.094 106.761 292.096 103.146 289.135 98.7196C286.174 94.1458 284.693 88.613 284.693 82.1212C284.693 72.236 288.394 63.8999 295.797 57.113C303.2 50.3261 314.083 46.9327 328.445 46.9327C342.955 46.9327 354.355 50.1048 362.647 56.4491C371.086 62.7933 375.824 71.572 376.86 82.7851H346.878C346.434 78.8015 344.435 75.7769 340.882 73.7114C337.328 71.6458 333.257 70.613 328.667 70.613C323.041 70.613 318.821 71.572 316.008 73.4901C313.195 75.4081 311.788 77.7687 311.788 80.572C311.788 85.1458 316.378 88.2442 325.558 89.8671C326.89 90.0146 328.741 90.3097 331.11 90.7524C333.627 91.0474 336.144 91.4163 338.661 91.8589C341.326 92.154 343.399 92.4491 344.879 92.7442C349.321 93.3343 353.615 94.3671 357.761 95.8425C362.054 97.1704 365.83 99.0146 369.087 101.375C372.493 103.736 375.158 106.834 377.082 110.67C379.007 114.506 379.97 119.228 379.97 124.834C379.97 132.211 378.119 138.703 374.417 144.31C370.716 149.916 365.238 154.269 357.983 157.367C350.876 160.465 342.066 162.015 331.554 162.015Z" fill="white"/>
<path d="M429.6 162.015C421.457 162.015 414.424 160.539 408.501 157.588C402.579 154.638 397.989 150.654 394.732 145.638C391.622 140.621 390.068 135.088 390.068 129.039C390.068 117.679 394.139 108.9 402.283 102.703C410.574 96.3589 421.383 93.1868 434.708 93.1868C441.074 93.1868 446.479 93.6294 450.92 94.5146C455.51 95.3999 459.212 96.2851 462.025 97.1704V91.8589C462.025 84.6294 459.878 79.3917 455.584 76.1458C451.439 72.8999 446.109 71.2769 439.594 71.2769C435.152 71.2769 431.154 72.1622 427.601 73.9327C424.048 75.7032 421.753 78.9491 420.716 83.6704H391.622C392.511 75.8507 395.102 69.2114 399.396 63.7524C403.837 58.2933 409.538 54.1622 416.497 51.3589C423.455 48.4081 431.154 46.9327 439.594 46.9327C456.177 46.9327 469.206 50.8425 478.682 58.6622C488.306 66.3343 493.118 77.3999 493.118 91.8589V114.654C493.118 120.261 493.414 124.465 494.006 127.269C494.746 129.924 495.857 131.621 497.337 132.359C498.818 133.097 500.743 133.465 503.112 133.465H504V159.359H497.115C489.12 159.359 482.457 158.4 477.127 156.482C471.797 154.416 467.873 150.506 465.356 144.752C461.507 149.769 456.547 153.9 450.476 157.146C444.406 160.392 437.447 162.015 429.6 162.015ZM436.929 138.556C441.223 138.556 444.85 137.67 447.811 135.9C450.92 133.982 453.512 131.4 455.584 128.154C457.657 124.761 459.212 120.998 460.248 116.867C457.287 115.982 453.808 115.17 449.81 114.433C445.96 113.547 442.037 113.105 438.039 113.105C433.449 113.105 429.526 114.285 426.269 116.646C423.011 118.859 421.383 122.105 421.383 126.383C421.383 129.924 422.789 132.875 425.602 135.236C428.415 137.449 432.191 138.556 436.929 138.556Z" fill="white"/>
</svg>
