<svg width="1440" height="286" viewBox="0 0 1440 286" fill="none" xmlns="http://www.w3.org/2000/svg">
<g clip-path="url(#clip0_75_342)">
<path d="M1460.74 108.774C1259.3 209.151 992.198 259.352 725.87 259.994C459.49 260.636 188.538 211.715 -20.6292 108.883L-62 88.5437L-21.6581 5.1133L19.7117 25.4519C212.769 120.364 468.862 167.794 725.649 167.175C982.488 166.556 1234.68 117.884 1419.96 25.5613L1461.22 5L1502 88.2126L1460.74 108.774Z" fill="#AD0BD6"/>
<path d="M28.0089 93.9213C25.452 92.7802 23.4805 91.2433 22.0945 89.3107C20.7437 87.3646 20.0092 85.1825 19.8911 82.7644C19.7838 80.322 20.3116 77.798 21.4745 75.1923C22.6373 72.5867 24.1636 70.5083 26.0531 68.957C27.9427 67.4058 30.0628 66.483 32.4135 66.1888C34.7885 65.9055 37.2544 66.3344 39.8113 67.4755C42.904 68.8557 45.0821 70.7476 46.3455 73.1512C47.6333 75.5656 47.9067 78.2574 47.1657 81.2265L41.9057 78.879C42.233 77.3606 42.0591 75.9835 41.3841 74.7478C40.7091 73.5121 39.5193 72.5139 37.8147 71.7531C36.2562 71.0576 34.7538 70.8251 33.3076 71.0557C31.8723 71.262 30.5513 71.899 29.3448 72.9666C28.1383 74.0343 27.1221 75.4935 26.2961 77.3442C25.4701 79.1949 25.0627 80.9258 25.0738 82.5368C25.0957 84.1235 25.5037 85.5321 26.2979 86.7625C27.1029 87.9687 28.2846 88.9195 29.8431 89.615C31.5477 90.3758 33.0623 90.6137 34.3867 90.3287C35.7355 90.0546 36.8779 89.2942 37.814 88.0474L43.0374 90.3786C41.3684 92.8751 39.2108 94.4381 36.5645 95.0676C33.9534 95.6836 31.1015 95.3016 28.0089 93.9213ZM47.5329 102.43C46.1563 101.851 45.0675 101.104 44.2663 100.189C43.4897 99.2836 43.0191 98.3047 42.8543 97.2518C42.6895 96.199 42.8189 95.1686 43.2427 94.1607C44.0489 92.2433 45.3574 91.0578 47.1681 90.6042C48.9891 90.126 51.0181 90.3571 53.2551 91.2977C54.3121 91.7422 55.1907 92.1983 55.8907 92.6662C56.5907 93.1341 57.1504 93.5575 57.5697 93.9363L57.9418 93.0513C58.4792 91.7731 58.5033 90.6839 58.0139 89.7839C57.5491 88.8941 56.739 88.2064 55.5836 87.7206C54.7724 87.3795 53.9749 87.2467 53.191 87.3221C52.4175 87.3729 51.769 87.7801 51.2455 88.5435L46.7101 86.6365C47.4054 85.3957 48.3079 84.4878 49.4174 83.913C50.5373 83.3135 51.7608 83.018 53.088 83.0264C54.4397 83.0451 55.8039 83.3439 57.1805 83.9227C59.9091 85.07 61.7616 86.6154 62.7379 88.5591C63.7387 90.5131 63.7379 92.6824 62.7353 95.0668L60.9988 99.1966C60.6061 100.131 60.3658 100.84 60.2781 101.324C60.215 101.818 60.2805 102.178 60.4746 102.404C60.6688 102.63 60.9748 102.831 61.3927 103.007L61.5402 103.069L59.8502 107.088L58.8178 106.654C57.5149 106.106 56.5057 105.48 55.79 104.774C55.0743 104.068 54.7317 103.128 54.7622 101.955C53.7859 102.557 52.6749 102.929 51.4293 103.07C50.1838 103.212 48.8849 102.999 47.5329 102.43ZM50.1371 99.2292C50.9238 99.56 51.6598 99.667 52.3453 99.5502C53.0658 99.4192 53.7395 99.1239 54.3667 98.6644C55.0041 98.1803 55.5517 97.6005 56.0092 96.9251C55.555 96.5606 55.0096 96.1721 54.373 95.7598C53.7713 95.3332 53.1263 94.9753 52.438 94.6859C51.4793 94.2828 50.6119 94.1784 49.8359 94.3728C49.0948 94.553 48.5641 95.0241 48.2436 95.7861C47.9646 96.4499 47.983 97.094 48.2989 97.7186C48.6394 98.3536 49.2522 98.8571 50.1371 99.2292ZM62.486 108.165L69.8747 89.7525L74.7007 91.6891L73.5685 94.5104C74.4161 93.7587 75.3154 93.2719 76.2664 93.0501C77.2274 92.8036 78.1904 92.874 79.1556 93.2613L81.4944 94.1998L79.7663 98.506L76.945 97.3739C76.0541 97.0163 75.2173 96.9535 74.4346 97.1854C73.6767 97.4272 72.973 97.9637 72.3233 98.7949C71.6737 99.6261 71.0708 100.735 70.5147 102.121L67.3119 110.102L62.486 108.165ZM76.7831 113.881L83.9569 95.3833L88.805 97.2635L87.7058 100.098C88.5446 99.3363 89.4382 98.8391 90.3866 98.6062C91.3446 98.3485 92.3084 98.4077 93.278 98.7837L95.6275 99.6949L93.9498 104.021L91.1155 102.922C90.2204 102.575 89.3829 102.522 88.603 102.763C87.848 103.013 87.1505 103.558 86.5107 104.397C85.8708 105.235 85.2808 106.351 84.7409 107.743L81.6313 115.761L76.7831 113.881ZM98.1513 122.513C96.2517 121.806 94.7258 120.784 93.5734 119.445C92.4304 118.081 91.7114 116.533 91.4162 114.802C91.1304 113.046 91.3407 111.218 92.047 109.318C92.7625 107.393 93.7991 105.83 95.1565 104.628C96.5389 103.435 98.1083 102.695 99.8647 102.409C101.63 102.099 103.476 102.301 105.4 103.017C107.25 103.704 108.726 104.708 109.828 106.029C110.93 107.349 111.613 108.84 111.877 110.503C112.166 112.175 111.985 113.886 111.334 115.636C111.241 115.886 111.139 116.161 111.028 116.461C110.916 116.761 110.775 117.064 110.604 117.37L95.1949 111.641L96.3101 108.641L106.883 112.572C107.254 111.345 107.162 110.215 106.607 109.184C106.051 108.152 105.174 107.413 103.974 106.967C103.074 106.633 102.175 106.526 101.276 106.647C100.378 106.768 99.5549 107.145 98.8076 107.778C98.0946 108.394 97.5105 109.315 97.0551 110.54L96.6648 111.59C96.2744 112.64 96.1477 113.631 96.2845 114.564C96.4213 115.497 96.7732 116.31 97.34 117.005C97.9162 117.674 98.6667 118.181 99.5915 118.524C100.541 118.878 101.42 118.963 102.228 118.779C103.036 118.596 103.745 118.219 104.355 117.65L109.304 119.49C108.517 120.534 107.53 121.391 106.343 122.059C105.19 122.711 103.911 123.089 102.507 123.193C101.103 123.297 99.651 123.07 98.1513 122.513ZM110.38 126.522L117.036 107.831L121.935 109.576L120.915 112.44C121.732 111.655 122.611 111.133 123.553 110.874C124.503 110.59 125.468 110.622 126.448 110.971L128.822 111.816L127.265 116.187L124.402 115.168C123.497 114.846 122.659 114.816 121.886 115.078C121.138 115.35 120.456 115.914 119.84 116.77C119.223 117.626 118.665 118.758 118.164 120.164L115.279 128.266L110.38 126.522ZM130.362 134.019C128.948 133.538 127.81 132.869 126.946 132.012C126.108 131.163 125.57 130.22 125.332 129.181C125.094 128.142 125.151 127.105 125.504 126.07C126.174 124.101 127.396 122.827 129.171 122.248C130.954 121.643 132.994 121.732 135.291 122.514C136.377 122.883 137.285 123.277 138.016 123.695C138.747 124.112 139.335 124.495 139.78 124.844L140.089 123.935C140.536 122.622 140.484 121.534 139.932 120.671C139.406 119.816 138.55 119.186 137.364 118.783C136.531 118.499 135.726 118.422 134.949 118.552C134.181 118.657 133.563 119.109 133.094 119.907L128.436 118.322C129.043 117.035 129.88 116.067 130.946 115.416C132.021 114.739 133.221 114.359 134.546 114.274C135.896 114.198 137.277 114.401 138.691 114.882C141.493 115.836 143.449 117.248 144.559 119.118C145.694 120.998 145.845 123.162 145.012 125.61L143.569 129.852C143.242 130.811 143.052 131.535 142.998 132.024C142.97 132.521 143.061 132.876 143.27 133.088C143.48 133.3 143.799 133.479 144.228 133.625L144.379 133.677L142.975 137.804L141.915 137.443C140.577 136.988 139.526 136.433 138.763 135.779C137.999 135.125 137.592 134.212 137.54 133.039C136.608 133.708 135.526 134.157 134.294 134.385C133.061 134.614 131.75 134.492 130.362 134.019ZM132.736 130.644C133.544 130.919 134.285 130.974 134.961 130.81C135.67 130.629 136.322 130.287 136.915 129.785C137.517 129.257 138.023 128.64 138.432 127.935C137.954 127.603 137.382 127.253 136.718 126.887C136.088 126.503 135.42 126.191 134.713 125.951C133.729 125.616 132.856 125.572 132.096 125.821C131.369 126.052 130.872 126.559 130.606 127.342C130.374 128.023 130.438 128.665 130.796 129.266C131.18 129.875 131.827 130.335 132.736 130.644ZM153.068 141.58C150.582 140.777 148.715 139.529 147.468 137.838C146.246 136.154 145.849 134.302 146.277 132.283L151.34 133.918C151.263 134.762 151.502 135.54 152.057 136.251C152.637 136.971 153.448 137.499 154.488 137.835C155.579 138.188 156.47 138.251 157.159 138.025C157.874 137.808 158.325 137.407 158.514 136.824C158.67 136.341 158.59 135.895 158.274 135.485C157.958 135.075 157.3 134.638 156.301 134.175C155.937 134.002 155.466 133.766 154.89 133.467C154.314 133.169 153.848 132.921 153.492 132.721C152.517 132.182 151.672 131.545 150.957 130.81C150.241 130.074 149.74 129.24 149.453 128.307C149.191 127.381 149.245 126.348 149.614 125.206C150.155 123.531 151.231 122.323 152.844 121.583C154.489 120.826 156.518 120.836 158.928 121.615C161.339 122.393 163.083 123.545 164.16 125.07C165.237 126.595 165.552 128.35 165.107 130.336L160.311 128.787C160.481 128.001 160.297 127.311 159.76 126.718C159.249 126.132 158.575 125.704 157.737 125.434C156.747 125.114 155.925 125.058 155.269 125.267C154.621 125.45 154.211 125.808 154.039 126.341C153.744 127.254 154.385 128.134 155.961 128.979C156.207 129.087 156.508 129.24 156.864 129.439C157.253 129.621 157.652 129.82 158.058 130.035C158.473 130.225 158.8 130.386 159.037 130.519C159.74 130.858 160.41 131.257 161.047 131.715C161.684 132.173 162.215 132.695 162.643 133.281C163.103 133.85 163.392 134.518 163.509 135.284C163.651 136.059 163.566 136.928 163.255 137.892C162.853 139.136 162.18 140.137 161.234 140.897C160.296 141.631 159.132 142.067 157.742 142.207C156.377 142.355 154.819 142.146 153.068 141.58ZM184.675 151.378C182.885 150.846 181.404 149.933 180.231 148.639C179.083 147.352 178.324 145.833 177.955 144.082C177.592 142.305 177.692 140.471 178.254 138.579C178.824 136.662 179.738 135.084 180.996 133.844C182.262 132.579 183.724 131.734 185.38 131.308C187.07 130.864 188.81 130.908 190.599 131.44C192.03 131.865 193.19 132.502 194.079 133.35C194.993 134.206 195.629 135.201 195.987 136.337L199.302 125.179L204.287 126.66L196.084 154.267L191.1 152.786L191.909 150.064C191.07 150.733 190.045 151.235 188.832 151.57C187.645 151.913 186.26 151.849 184.675 151.378ZM187.036 147.364C188.084 147.676 189.076 147.706 190.013 147.456C190.975 147.213 191.799 146.735 192.484 146.02C193.203 145.288 193.721 144.385 194.04 143.311C194.367 142.212 194.425 141.173 194.216 140.192C194.032 139.22 193.603 138.369 192.929 137.64C192.281 136.919 191.433 136.403 190.385 136.091C189.363 135.788 188.37 135.757 187.408 136C186.446 136.242 185.609 136.717 184.898 137.424C184.195 138.105 183.68 138.995 183.354 140.095C183.027 141.194 182.965 142.246 183.167 143.252C183.376 144.232 183.818 145.087 184.492 145.816C185.165 146.544 186.013 147.061 187.036 147.364ZM208.585 158.295C206.633 157.749 205.028 156.856 203.768 155.617C202.516 154.353 201.671 152.87 201.234 151.169C200.803 149.442 200.861 147.603 201.408 145.652C201.962 143.674 202.865 142.03 204.118 140.72C205.397 139.416 206.9 138.549 208.626 138.119C210.36 137.663 212.216 137.712 214.193 138.265C216.093 138.797 217.647 139.676 218.855 140.9C220.063 142.124 220.868 143.554 221.268 145.19C221.694 146.832 221.656 148.552 221.153 150.349C221.081 150.606 221.002 150.889 220.915 151.197C220.829 151.505 220.713 151.819 220.569 152.138L204.737 147.706L205.6 144.624L216.463 147.665C216.731 146.411 216.545 145.293 215.906 144.311C215.267 143.329 214.332 142.666 213.099 142.321C212.175 142.062 211.27 142.03 210.384 142.225C209.499 142.42 208.71 142.864 208.018 143.556C207.358 144.23 206.852 145.196 206.5 146.454L206.198 147.533C205.896 148.611 205.852 149.61 206.066 150.528C206.279 151.446 206.697 152.228 207.32 152.873C207.949 153.493 208.739 153.935 209.689 154.201C210.665 154.475 211.548 154.486 212.338 154.237C213.128 153.987 213.803 153.553 214.364 152.935L219.448 154.358C218.751 155.465 217.838 156.4 216.711 157.164C215.616 157.91 214.373 158.393 212.982 158.612C211.591 158.832 210.125 158.726 208.585 158.295ZM221.058 161.27L228.53 133.456L233.552 134.806L226.08 162.619L221.058 161.27ZM242.701 166.961L248.207 145.248C248.66 143.464 249.204 142.186 249.841 141.412C250.484 140.612 251.306 140.188 252.309 140.139C253.338 140.098 254.627 140.273 256.178 140.667L258.543 141.266L257.452 145.57L256.056 145.216C255.126 144.98 254.469 144.965 254.087 145.171C253.705 145.376 253.399 145.932 253.169 146.836L247.742 168.239L242.701 166.961ZM243.87 151.287L244.942 147.061L256.341 149.952L255.269 154.178L243.87 151.287ZM261.064 172.012C258.861 171.48 257.293 170.305 256.36 168.488C255.46 166.652 255.36 164.282 256.062 161.379L258.684 150.532L263.738 151.753L261.229 162.134C260.828 163.793 260.832 165.139 261.242 166.17C261.683 167.182 262.513 167.835 263.731 168.13C265.105 168.462 266.283 168.239 267.267 167.462C268.256 166.658 268.961 165.388 269.381 163.652L271.786 153.698L276.841 154.92L272.18 174.205L267.126 172.983L267.812 170.145C266.997 171.018 266.025 171.634 264.896 171.992C263.767 172.35 262.49 172.357 261.064 172.012ZM283.352 176.8C282.053 176.5 280.981 176.102 280.138 175.607C279.326 175.091 278.798 174.353 278.555 173.394C278.317 172.409 278.386 171.098 278.764 169.461L280.868 160.34L277.555 159.576L278.535 155.327L281.848 156.092L283.044 150.908L288.111 152.077L286.915 157.26L291.787 158.384L290.807 162.633L285.935 161.509L283.975 170.006C283.825 170.655 283.776 171.164 283.828 171.532C283.886 171.874 284.085 172.138 284.425 172.326C284.765 172.514 285.246 172.68 285.87 172.824L288.208 173.363L287.211 177.69L283.352 176.8ZM296.188 180.153C293.974 179.668 292.381 178.528 291.409 176.732C290.469 174.916 290.318 172.549 290.956 169.631L293.342 158.729L298.422 159.841L296.139 170.274C295.774 171.941 295.807 173.286 296.238 174.308C296.702 175.311 297.545 175.946 298.77 176.214C300.15 176.516 301.324 176.267 302.29 175.469C303.262 174.644 303.939 173.359 304.321 171.614L306.51 161.611L311.59 162.722L307.349 182.104L302.269 180.992L302.893 178.14C302.098 179.03 301.14 179.667 300.019 180.049C298.898 180.432 297.621 180.466 296.188 180.153ZM310.654 182.81L314.706 163.388L319.796 164.45L319.176 167.426C319.879 166.538 320.679 165.901 321.576 165.516C322.479 165.105 323.44 165.006 324.458 165.218L326.925 165.733L325.977 170.275L323.001 169.654C322.061 169.458 321.227 169.543 320.497 169.908C319.793 170.279 319.194 170.93 318.7 171.862C318.205 172.794 317.806 173.991 317.501 175.453L315.745 183.872L310.654 182.81ZM333.368 187.911C331.406 187.524 329.726 186.744 328.326 185.571C326.927 184.397 325.922 182.949 325.311 181.224C324.7 179.5 324.591 177.644 324.983 175.655C325.381 173.641 326.188 171.965 327.403 170.629C328.623 169.266 330.103 168.308 331.843 167.754C333.61 167.206 335.461 167.123 337.397 167.505C339.359 167.893 341.04 168.673 342.439 169.846C343.838 171.019 344.843 172.468 345.454 174.192C346.07 175.891 346.18 177.747 345.782 179.761C345.389 181.75 344.583 183.425 343.363 184.788C342.142 186.151 340.662 187.109 338.922 187.662C337.182 188.216 335.331 188.299 333.368 187.911ZM334.236 183.516C335.178 183.702 336.083 183.663 336.95 183.4C337.823 183.11 338.567 182.577 339.182 181.802C339.823 181.031 340.27 180.005 340.523 178.723C340.777 177.441 340.753 176.322 340.452 175.366C340.152 174.41 339.651 173.645 338.948 173.071C338.277 172.477 337.484 172.089 336.568 171.908C335.627 171.722 334.719 171.774 333.847 172.064C332.974 172.354 332.217 172.884 331.576 173.654C330.94 174.399 330.495 175.412 330.242 176.694C329.989 177.975 329.999 179.092 330.274 180.043C330.574 180.999 331.073 181.777 331.77 182.377C332.472 182.951 333.294 183.33 334.236 183.516ZM357.223 200.939L362.208 172.736L367.329 173.641L366.835 176.438C367.618 175.683 368.58 175.068 369.72 174.592C370.886 174.121 372.284 174.03 373.912 174.318C375.75 174.642 377.312 175.379 378.599 176.527C379.885 177.675 380.812 179.098 381.378 180.796C381.945 182.494 382.054 184.328 381.706 186.297C381.362 188.24 380.633 189.912 379.519 191.313C378.405 192.714 377.047 193.733 375.445 194.371C373.847 194.982 372.13 195.125 370.291 194.8C368.821 194.54 367.583 194.037 366.577 193.291C365.598 192.549 364.853 191.632 364.342 190.54L362.344 201.844L357.223 200.939ZM369.936 190.147C371.013 190.337 372.015 190.257 372.944 189.907C373.872 189.557 374.649 188.99 375.275 188.207C375.901 187.424 376.311 186.481 376.506 185.378C376.706 184.249 376.646 183.209 376.326 182.259C376.012 181.283 375.478 180.471 374.726 179.823C373.974 179.176 373.059 178.757 371.983 178.567C370.906 178.376 369.904 178.456 368.975 178.807C368.073 179.162 367.309 179.731 366.683 180.514C366.083 181.302 365.684 182.26 365.484 183.389C365.285 184.518 365.331 185.556 365.625 186.501C365.944 187.451 366.467 188.248 367.193 188.891C367.945 189.538 368.859 189.957 369.936 190.147ZM388.839 197.968C387.365 197.727 386.132 197.255 385.139 196.552C384.173 195.853 383.486 195.011 383.08 194.026C382.674 193.041 382.559 192.009 382.735 190.93C383.071 188.877 384.066 187.419 385.721 186.555C387.38 185.664 389.407 185.415 391.802 185.807C392.933 185.992 393.894 186.23 394.684 186.521C395.474 186.813 396.117 187.094 396.613 187.364L396.768 186.416C396.992 185.048 396.761 183.983 396.075 183.223C395.415 182.466 394.467 181.987 393.23 181.784C392.361 181.642 391.555 181.699 390.81 181.956C390.07 182.186 389.535 182.734 389.204 183.598L384.349 182.804C384.735 181.435 385.4 180.341 386.345 179.523C387.293 178.678 388.414 178.105 389.706 177.803C391.025 177.506 392.421 177.477 393.895 177.718C396.816 178.196 398.978 179.266 400.382 180.928C401.812 182.594 402.318 184.703 401.9 187.256L401.177 191.677C401.013 192.677 400.945 193.423 400.973 193.914C401.027 194.409 401.175 194.744 401.416 194.919C401.658 195.093 402.003 195.217 402.45 195.29L402.608 195.316L401.904 199.619L400.799 199.438C399.404 199.21 398.276 198.836 397.415 198.317C396.554 197.798 396.002 196.964 395.757 195.817C394.949 196.63 393.955 197.251 392.777 197.68C391.599 198.109 390.287 198.205 388.839 197.968ZM390.623 194.247C391.465 194.385 392.206 194.317 392.845 194.043C393.515 193.747 394.101 193.303 394.604 192.71C395.11 192.09 395.507 191.398 395.794 190.635C395.268 190.386 394.646 190.136 393.931 189.884C393.246 189.61 392.536 189.412 391.799 189.292C390.772 189.124 389.905 189.225 389.196 189.595C388.517 189.944 388.111 190.526 387.978 191.342C387.861 192.052 388.03 192.674 388.483 193.208C388.962 193.746 389.676 194.092 390.623 194.247ZM404.621 200.047L407.639 180.438L412.778 181.229L412.316 184.233C412.971 183.309 413.736 182.631 414.612 182.199C415.492 181.741 416.446 181.591 417.474 181.749L419.964 182.132L419.259 186.718L416.254 186.256C415.305 186.11 414.476 186.239 413.766 186.642C413.083 187.049 412.52 187.732 412.076 188.689C411.632 189.646 411.296 190.862 411.069 192.338L409.761 200.838L404.621 200.047ZM425.619 203.664C424.14 203.454 422.897 203.008 421.89 202.326C420.909 201.648 420.205 200.821 419.778 199.844C419.351 198.868 419.214 197.839 419.368 196.756C419.66 194.697 420.625 193.218 422.261 192.319C423.9 191.393 425.922 191.101 428.324 191.443C429.459 191.604 430.425 191.822 431.221 192.097C432.017 192.371 432.666 192.638 433.168 192.898L433.303 191.948C433.498 190.575 433.244 189.515 432.542 188.769C431.866 188.027 430.908 187.568 429.667 187.391C428.796 187.268 427.991 187.342 427.252 187.614C426.517 187.86 425.993 188.418 425.681 189.29L420.809 188.598C421.167 187.221 421.809 186.114 422.736 185.276C423.667 184.411 424.775 183.814 426.061 183.485C427.373 183.16 428.768 183.102 430.246 183.312C433.177 183.728 435.361 184.753 436.8 186.384C438.264 188.02 438.815 190.118 438.451 192.679L437.821 197.115C437.678 198.118 437.626 198.865 437.664 199.355C437.729 199.849 437.884 200.18 438.129 200.35C438.374 200.519 438.721 200.636 439.17 200.7L439.329 200.722L438.715 205.039L437.607 204.882C436.207 204.683 435.072 204.333 434.2 203.832C433.329 203.331 432.759 202.51 432.49 201.367C431.699 202.197 430.719 202.839 429.55 203.293C428.381 203.746 427.071 203.87 425.619 203.664ZM427.324 199.906C428.169 200.026 428.908 199.943 429.541 199.655C430.205 199.346 430.781 198.889 431.271 198.285C431.765 197.655 432.147 196.955 432.418 196.186C431.886 195.948 431.26 195.711 430.539 195.474C429.849 195.215 429.134 195.032 428.395 194.927C427.365 194.781 426.5 194.901 425.799 195.286C425.128 195.648 424.734 196.239 424.618 197.057C424.516 197.77 424.698 198.388 425.162 198.912C425.653 199.44 426.374 199.771 427.324 199.906ZM459.539 207.801L454.738 187.206L460.175 187.886L463.285 203.311L470.058 189.122L475.456 189.797L465.77 208.58L459.539 207.801ZM483.643 211.177C481.656 210.95 479.918 210.308 478.428 209.252C476.938 208.195 475.82 206.833 475.071 205.163C474.323 203.494 474.064 201.653 474.294 199.639C474.528 197.599 475.196 195.864 476.299 194.433C477.406 192.976 478.804 191.902 480.493 191.209C482.209 190.52 484.048 190.288 486.008 190.512C487.995 190.739 489.734 191.381 491.223 192.438C492.713 193.494 493.832 194.857 494.58 196.526C495.331 198.169 495.59 200.01 495.357 202.05C495.126 204.064 494.458 205.799 493.352 207.256C492.246 208.713 490.848 209.787 489.158 210.48C487.468 211.172 485.63 211.405 483.643 211.177ZM484.152 206.726C485.106 206.835 486.005 206.723 486.848 206.391C487.694 206.031 488.393 205.44 488.943 204.617C489.52 203.798 489.883 202.739 490.032 201.44C490.18 200.142 490.066 199.029 489.689 198.1C489.312 197.171 488.751 196.449 488.005 195.934C487.288 195.396 486.466 195.074 485.539 194.968C484.585 194.858 483.685 194.983 482.838 195.343C481.992 195.702 481.28 196.292 480.703 197.112C480.129 197.905 479.768 198.95 479.62 200.249C479.471 201.547 479.572 202.659 479.922 203.585C480.299 204.514 480.859 205.249 481.602 205.79C482.349 206.305 483.199 206.617 484.152 206.726ZM504.771 213.485C502.172 213.216 500.086 212.384 498.515 210.988C496.97 209.595 496.197 207.867 496.196 205.802L501.488 206.35C501.588 207.191 501.984 207.902 502.674 208.483C503.392 209.067 504.294 209.414 505.381 209.527C506.522 209.645 507.406 209.522 508.033 209.158C508.687 208.796 509.046 208.311 509.109 207.701C509.161 207.197 508.99 206.777 508.596 206.441C508.202 206.106 507.468 205.815 506.394 205.57C506.001 205.476 505.492 205.343 504.867 205.171C504.241 204.999 503.733 204.853 503.344 204.732C502.278 204.407 501.319 203.96 500.467 203.389C499.614 202.818 498.951 202.106 498.476 201.253C498.028 200.402 497.865 199.38 497.989 198.186C498.17 196.436 498.972 195.031 500.395 193.972C501.847 192.889 503.834 192.477 506.353 192.738C508.873 192.998 510.818 193.763 512.189 195.03C513.559 196.298 514.233 197.949 514.21 199.984L509.197 199.466C509.199 198.662 508.876 198.025 508.228 197.556C507.606 197.09 506.857 196.811 505.982 196.721C504.947 196.614 504.131 196.73 503.533 197.071C502.937 197.384 502.611 197.82 502.553 198.377C502.455 199.332 503.264 200.059 504.982 200.558C505.244 200.612 505.57 200.7 505.96 200.82C506.379 200.917 506.81 201.029 507.252 201.155C507.698 201.255 508.051 201.345 508.31 201.425C509.069 201.611 509.807 201.861 510.525 202.177C511.243 202.493 511.872 202.893 512.411 203.377C512.98 203.838 513.401 204.432 513.675 205.157C513.975 205.885 514.073 206.753 513.969 207.761C513.834 209.061 513.383 210.18 512.616 211.12C511.851 212.032 510.804 212.702 509.473 213.127C508.169 213.555 506.601 213.674 504.771 213.485ZM528.635 215.373L531.142 186.683L536.322 187.135L535.281 199.05C536.012 198.043 536.975 197.284 538.171 196.773C539.395 196.237 540.725 196.032 542.159 196.157C544.603 196.371 546.421 197.319 547.612 199.003C548.832 200.662 549.313 202.979 549.053 205.955L548.081 217.072L542.941 216.623L543.87 205.984C544.019 204.283 543.786 202.965 543.172 202.028C542.587 201.067 541.577 200.523 540.142 200.398C538.708 200.273 537.482 200.674 536.464 201.602C535.448 202.504 534.862 203.845 534.707 205.625L533.816 215.826L528.635 215.373ZM561.339 218.579C559.344 218.428 557.583 217.853 556.054 216.854C554.525 215.856 553.355 214.537 552.543 212.898C551.732 211.258 551.402 209.428 551.556 207.407C551.711 205.36 552.313 203.6 553.36 202.128C554.41 200.63 555.766 199.503 557.428 198.746C559.116 197.992 560.944 197.689 562.912 197.839C564.906 197.99 566.668 198.565 568.197 199.563C569.726 200.562 570.896 201.881 571.707 203.52C572.521 205.133 572.85 206.963 572.695 209.011C572.542 211.032 571.94 212.791 570.89 214.289C569.841 215.788 568.485 216.915 566.823 217.671C565.161 218.428 563.333 218.73 561.339 218.579ZM561.678 214.112C562.635 214.185 563.528 214.038 564.358 213.674C565.19 213.282 565.866 212.665 566.384 211.821C566.929 210.98 567.251 209.908 567.35 208.605C567.449 207.302 567.293 206.194 566.88 205.28C566.468 204.366 565.88 203.667 565.114 203.181C564.377 202.67 563.544 202.38 562.613 202.309C561.656 202.236 560.761 202.396 559.929 202.787C559.097 203.179 558.409 203.795 557.863 204.636C557.32 205.451 556.999 206.51 556.9 207.813C556.801 209.115 556.945 210.223 557.33 211.135C557.742 212.048 558.33 212.762 559.093 213.274C559.859 213.76 560.72 214.039 561.678 214.112ZM572.05 227.72L572.317 223.609L576.548 223.884C576.948 223.91 577.284 223.879 577.557 223.79C577.828 223.727 578.094 223.544 578.354 223.24C578.614 222.937 578.899 222.461 579.209 221.813L581.167 218.212L580.739 220.469L573.47 199.112L579.098 199.479L583.706 213.688L590.355 200.211L595.863 200.569L583.762 223.913C583.272 224.87 582.835 225.63 582.451 226.193C582.092 226.784 581.743 227.215 581.405 227.487C581.065 227.786 580.665 227.974 580.206 228.051C579.771 228.156 579.208 228.186 578.516 228.141L572.05 227.72ZM622.109 222.246C619.312 222.115 616.916 221.402 614.921 220.107C612.954 218.786 611.475 217.022 610.484 214.813C609.495 212.577 609.067 210.034 609.201 207.184C609.335 204.334 609.999 201.842 611.194 199.709C612.388 197.576 614.027 195.945 616.109 194.814C618.217 193.685 620.67 193.187 623.467 193.318C626.85 193.477 629.567 194.445 631.62 196.224C633.698 198.003 634.934 200.41 635.325 203.445L629.571 203.175C629.323 201.642 628.659 200.423 627.581 199.518C626.502 198.613 625.03 198.117 623.166 198.029C621.461 197.949 619.977 198.28 618.714 199.021C617.453 199.736 616.454 200.811 615.72 202.244C614.985 203.678 614.57 205.407 614.475 207.432C614.38 209.456 614.631 211.217 615.228 212.713C615.826 214.183 616.72 215.346 617.907 216.202C619.096 217.032 620.543 217.487 622.248 217.567C624.113 217.655 625.61 217.325 626.74 216.577C627.896 215.83 628.683 214.706 629.1 213.204L634.814 213.472C634.169 216.405 632.729 218.647 630.494 220.197C628.287 221.722 625.491 222.405 622.109 222.246ZM643.244 223.138C641.752 223.085 640.469 222.773 639.395 222.202C638.348 221.632 637.56 220.883 637.032 219.958C636.504 219.032 636.26 218.023 636.298 216.93C636.371 214.851 637.173 213.279 638.705 212.212C640.238 211.118 642.217 210.614 644.642 210.699C645.788 210.739 646.771 210.854 647.592 211.043C648.412 211.232 649.086 211.429 649.612 211.634L649.646 210.675C649.695 209.289 649.33 208.262 648.553 207.594C647.803 206.928 646.801 206.572 645.549 206.528C644.669 206.497 643.877 206.656 643.171 207.005C642.466 207.327 642.004 207.938 641.786 208.838L636.869 208.665C637.078 207.258 637.599 206.089 638.433 205.158C639.267 204.2 640.306 203.489 641.549 203.026C642.82 202.563 644.201 202.358 645.693 202.411C648.652 202.515 650.932 203.302 652.535 204.772C654.164 206.244 654.933 208.272 654.843 210.857L654.685 215.334C654.65 216.347 654.677 217.095 654.767 217.579C654.883 218.063 655.072 218.377 655.334 218.519C655.596 218.662 655.953 218.741 656.406 218.757L656.566 218.763L656.413 223.12L655.294 223.081C653.881 223.031 652.715 222.803 651.796 222.397C650.876 221.992 650.222 221.235 649.834 220.127C649.135 221.037 648.229 221.778 647.114 222.353C646 222.928 644.71 223.189 643.244 223.138ZM644.543 219.221C645.396 219.251 646.122 219.09 646.721 218.737C647.348 218.359 647.873 217.844 648.296 217.191C648.72 216.513 649.026 215.776 649.214 214.982C648.66 214.803 648.013 214.633 647.271 214.474C646.557 214.289 645.827 214.183 645.081 214.157C644.041 214.12 643.194 214.331 642.537 214.788C641.908 215.219 641.579 215.848 641.55 216.674C641.525 217.394 641.771 217.989 642.288 218.461C642.832 218.934 643.583 219.187 644.543 219.221ZM659.132 223.203L659.683 203.371L664.881 203.515L664.797 206.554C665.332 205.555 666.006 204.787 666.822 204.249C667.638 203.685 668.565 203.417 669.605 203.446L672.124 203.516L671.995 208.154L668.956 208.07C667.997 208.043 667.19 208.274 666.536 208.763C665.909 209.252 665.435 210 665.113 211.004C664.792 212.009 664.611 213.258 664.569 214.751L664.33 223.347L659.132 223.203ZM674.504 223.613L674.853 203.776L680.052 203.867L679.998 206.907C680.523 205.902 681.19 205.127 682 204.581C682.81 204.009 683.735 203.732 684.775 203.75L687.294 203.794L687.213 208.434L684.173 208.38C683.213 208.363 682.409 208.603 681.76 209.098C681.138 209.594 680.671 210.346 680.36 211.354C680.049 212.362 679.88 213.612 679.854 215.105L679.703 223.704L674.504 223.613ZM697.432 224.42C695.405 224.398 693.623 223.952 692.086 223.082C690.549 222.185 689.349 220.972 688.486 219.443C687.622 217.886 687.202 216.095 687.224 214.069C687.246 212.015 687.693 210.193 688.564 208.603C689.461 207.012 690.688 205.786 692.244 204.923C693.801 204.033 695.605 203.599 697.659 203.622C699.632 203.643 701.36 204.089 702.844 204.958C704.328 205.828 705.476 207 706.286 208.476C707.123 209.952 707.532 211.623 707.512 213.49C707.509 213.756 707.505 214.05 707.502 214.37C707.498 214.69 707.468 215.023 707.411 215.369L690.972 215.189L691.007 211.99L702.286 212.113C702.22 210.832 701.751 209.8 700.88 209.017C700.008 208.234 698.933 207.836 697.653 207.822C696.693 207.811 695.811 208.015 695.006 208.433C694.201 208.851 693.554 209.484 693.065 210.332C692.603 211.154 692.365 212.218 692.35 213.524L692.338 214.644C692.326 215.764 692.542 216.74 692.986 217.572C693.43 218.403 694.037 219.05 694.805 219.512C695.574 219.947 696.451 220.169 697.438 220.18C698.451 220.191 699.307 219.974 700.005 219.528C700.704 219.082 701.243 218.488 701.625 217.746L706.905 217.803C706.518 219.053 705.878 220.192 704.987 221.223C704.123 222.227 703.047 223.015 701.761 223.588C700.475 224.16 699.032 224.438 697.432 224.42ZM710.202 224.068L710.276 204.228L715.476 204.247L715.465 207.287C715.975 206.276 716.631 205.491 717.433 204.934C718.236 204.351 719.157 204.061 720.197 204.065L722.717 204.074L722.699 208.714L719.659 208.703C718.699 208.699 717.898 208.949 717.257 209.454C716.641 209.958 716.185 210.716 715.888 211.729C715.591 212.741 715.44 213.994 715.434 215.487L715.402 224.087L710.202 224.068ZM731.472 224.546C729.979 224.555 728.684 224.296 727.588 223.769C726.518 223.241 725.701 222.526 725.136 221.622C724.57 220.719 724.285 219.721 724.279 218.627C724.267 216.547 725.004 214.943 726.491 213.815C727.978 212.659 729.935 212.075 732.361 212.061C733.508 212.055 734.495 212.129 735.323 212.284C736.15 212.439 736.831 212.609 737.365 212.793L737.36 211.833C737.352 210.446 736.946 209.435 736.143 208.799C735.366 208.164 734.351 207.85 733.097 207.857C732.217 207.862 731.432 208.053 730.74 208.43C730.049 208.781 729.613 209.41 729.431 210.318L724.511 210.346C724.663 208.932 725.136 207.742 725.931 206.778C726.725 205.786 727.734 205.034 728.958 204.52C730.209 204.007 731.58 203.745 733.074 203.737C736.034 203.72 738.344 204.413 740.006 205.817C741.694 207.221 742.545 209.216 742.56 211.803L742.585 216.283C742.591 217.296 742.649 218.042 742.758 218.522C742.894 219.001 743.096 219.307 743.363 219.438C743.631 219.57 743.991 219.635 744.445 219.632L744.605 219.631L744.629 223.991L743.51 223.998C742.096 224.006 740.922 223.826 739.986 223.458C739.051 223.09 738.367 222.36 737.934 221.269C737.273 222.207 736.397 222.985 735.307 223.604C734.217 224.224 732.939 224.538 731.472 224.546ZM732.61 220.58C733.463 220.575 734.182 220.384 734.767 220.007C735.378 219.604 735.881 219.068 736.277 218.399C736.673 217.703 736.949 216.955 737.105 216.154C736.544 215.997 735.89 215.854 735.142 215.725C734.421 215.569 733.687 215.494 732.941 215.498C731.901 215.504 731.062 215.749 730.425 216.232C729.814 216.689 729.511 217.331 729.516 218.157C729.52 218.877 729.79 219.463 730.326 219.913C730.889 220.363 731.65 220.585 732.61 220.58ZM755.344 224.295C752.731 224.34 750.561 223.764 748.833 222.567C747.132 221.369 746.158 219.745 745.909 217.696L751.228 217.605C751.429 218.428 751.907 219.087 752.663 219.581C753.444 220.074 754.382 220.311 755.475 220.293C756.622 220.273 757.484 220.045 758.064 219.608C758.67 219.171 758.967 218.646 758.957 218.033C758.948 217.526 758.728 217.13 758.296 216.844C757.865 216.558 757.101 216.357 756.006 216.243C755.605 216.196 755.084 216.125 754.442 216.03C753.8 215.934 753.279 215.85 752.877 215.776C751.781 215.582 750.775 215.252 749.86 214.788C748.945 214.324 748.201 213.696 747.627 212.906C747.08 212.115 746.797 211.12 746.776 209.92C746.746 208.16 747.374 206.669 748.66 205.447C749.972 204.198 751.895 203.551 754.427 203.508C756.96 203.465 758.983 203.99 760.495 205.084C762.008 206.179 762.874 207.737 763.096 209.76L758.057 209.847C757.963 209.048 757.566 208.455 756.866 208.067C756.193 207.678 755.416 207.492 754.536 207.507C753.496 207.525 752.7 207.738 752.147 208.148C751.593 208.531 751.321 209.002 751.331 209.562C751.347 210.522 752.238 211.147 754.003 211.436C754.27 211.459 754.605 211.506 755.006 211.579C755.433 211.625 755.874 211.684 756.329 211.757C756.783 211.802 757.144 211.849 757.412 211.898C758.187 211.992 758.95 212.152 759.7 212.379C760.451 212.606 761.123 212.928 761.717 213.345C762.337 213.734 762.826 214.272 763.185 214.96C763.57 215.647 763.771 216.497 763.789 217.51C763.811 218.816 763.498 219.982 762.848 221.006C762.199 222.004 761.239 222.794 759.969 223.376C758.725 223.957 757.183 224.264 755.344 224.295ZM788.303 223.476C786.437 223.536 784.744 223.137 783.222 222.279C781.726 221.421 780.527 220.219 779.623 218.674C778.719 217.102 778.234 215.33 778.171 213.358C778.106 211.359 778.475 209.573 779.278 207.999C780.08 206.399 781.2 205.136 782.637 204.209C784.1 203.254 785.765 202.747 787.631 202.687C789.123 202.638 790.425 202.876 791.536 203.401C792.673 203.924 793.591 204.668 794.289 205.633L793.913 193.999L799.11 193.831L800.041 222.616L794.844 222.784L794.752 219.945C794.168 220.845 793.353 221.645 792.309 222.346C791.291 223.046 789.955 223.422 788.303 223.476ZM789.276 218.922C790.369 218.887 791.32 218.602 792.13 218.069C792.967 217.535 793.597 216.821 794.022 215.927C794.472 215.005 794.68 213.985 794.643 212.865C794.606 211.719 794.334 210.714 793.825 209.85C793.344 208.985 792.668 208.313 791.799 207.835C790.957 207.355 789.989 207.133 788.896 207.168C787.83 207.203 786.879 207.487 786.042 208.021C785.206 208.555 784.562 209.269 784.111 210.164C783.658 211.033 783.451 212.04 783.488 213.186C783.525 214.332 783.798 215.35 784.307 216.241C784.815 217.105 785.504 217.777 786.373 218.255C787.242 218.734 788.21 218.956 789.276 218.922ZM813.104 222.552C811.079 222.639 809.275 222.29 807.693 221.504C806.11 220.691 804.846 219.545 803.902 218.064C802.956 216.557 802.439 214.791 802.352 212.766C802.264 210.715 802.611 208.871 803.395 207.236C804.205 205.599 805.364 204.308 806.871 203.363C808.377 202.39 810.156 201.86 812.208 201.771C814.179 201.686 815.929 202.038 817.458 202.826C818.987 203.614 820.195 204.723 821.084 206.153C822 207.581 822.498 209.228 822.579 211.093C822.59 211.36 822.603 211.653 822.617 211.972C822.63 212.292 822.618 212.626 822.58 212.975L806.155 213.683L806.017 210.486L817.287 210C817.152 208.725 816.628 207.72 815.715 206.985C814.803 206.25 813.707 205.91 812.428 205.966C811.469 206.007 810.599 206.258 809.818 206.719C809.038 207.179 808.426 207.846 807.983 208.72C807.566 209.565 807.385 210.64 807.441 211.946L807.49 213.065C807.538 214.184 807.806 215.147 808.295 215.953C808.783 216.759 809.424 217.372 810.216 217.792C811.007 218.185 811.895 218.36 812.881 218.318C813.893 218.274 814.736 218.011 815.409 217.528C816.082 217.045 816.589 216.423 816.93 215.661L822.205 215.433C821.886 216.701 821.31 217.874 820.475 218.951C819.666 220 818.635 220.845 817.382 221.487C816.128 222.128 814.702 222.483 813.104 222.552ZM825.864 221.506L824.36 192.745L829.553 192.473L831.057 221.234L825.864 221.506ZM848.178 220.289L846.744 197.935C846.626 196.098 846.751 194.714 847.119 193.782C847.485 192.823 848.138 192.167 849.077 191.813C850.043 191.457 851.324 191.228 852.921 191.125L855.356 190.969L855.64 195.4L854.203 195.492C853.245 195.554 852.616 195.741 852.315 196.054C852.015 196.367 851.894 196.99 851.954 197.921L853.367 219.956L848.178 220.289ZM844.473 205.014L844.194 200.663L855.929 199.911L856.208 204.262L844.473 205.014ZM867.137 219.499C864.876 219.659 863.026 219.014 861.587 217.565C860.173 216.087 859.361 213.859 859.151 210.879L858.366 199.747L863.553 199.381L864.304 210.035C864.424 211.737 864.835 213.018 865.537 213.878C866.264 214.709 867.253 215.08 868.503 214.992C869.913 214.893 870.969 214.324 871.671 213.285C872.371 212.22 872.658 210.796 872.533 209.014L871.813 198.799L877 198.434L878.395 218.225L873.208 218.59L873.002 215.677C872.49 216.756 871.75 217.637 870.783 218.32C869.815 219.003 868.6 219.396 867.137 219.499ZM889.777 217.358C888.448 217.46 887.306 217.401 886.353 217.181C885.425 216.931 884.701 216.385 884.181 215.543C883.659 214.674 883.334 213.402 883.205 211.727L882.485 202.394L879.095 202.656L878.76 198.308L882.15 198.047L881.741 192.743L886.926 192.343L887.335 197.647L892.32 197.263L892.655 201.61L887.67 201.995L888.34 210.689C888.391 211.353 888.497 211.853 888.656 212.189C888.814 212.498 889.083 212.691 889.463 212.769C889.844 212.846 890.353 212.86 890.991 212.811L893.384 212.627L893.725 217.054L889.777 217.358ZM903.024 216.723C900.766 216.922 898.905 216.31 897.441 214.886C896.001 213.433 895.151 211.219 894.889 208.244L893.909 197.127L899.089 196.671L900.026 207.31C900.176 209.01 900.61 210.284 901.327 211.131C902.068 211.949 903.063 212.303 904.311 212.193C905.719 212.069 906.765 211.481 907.449 210.431C908.13 209.353 908.393 207.925 908.236 206.145L907.337 195.945L912.517 195.488L914.258 215.252L909.078 215.708L908.822 212.799C908.329 213.887 907.604 214.78 906.649 215.48C905.693 216.18 904.485 216.594 903.024 216.723ZM917.635 214.936L915.685 195.192L920.86 194.681L921.159 197.706C921.563 196.648 922.136 195.801 922.877 195.165C923.616 194.503 924.502 194.12 925.537 194.018L928.045 193.771L928.501 198.388L925.476 198.687C924.521 198.781 923.749 199.112 923.162 199.679C922.602 200.244 922.225 201.044 922.033 202.082C921.841 203.119 921.818 204.381 921.965 205.867L922.81 214.425L917.635 214.936ZM940.784 213.052C938.795 213.262 936.959 213.014 935.275 212.307C933.592 211.6 932.203 210.513 931.109 209.047C930.016 207.581 929.362 205.84 929.149 203.824C928.933 201.782 929.208 199.943 929.973 198.307C930.736 196.644 931.866 195.291 933.365 194.248C934.89 193.201 936.634 192.575 938.596 192.367C940.585 192.157 942.421 192.405 944.105 193.112C945.789 193.818 947.177 194.905 948.271 196.371C949.362 197.811 950.015 199.552 950.231 201.594C950.445 203.61 950.17 205.449 949.407 207.112C948.645 208.774 947.514 210.127 946.015 211.171C944.517 212.214 942.773 212.841 940.784 213.052ZM940.313 208.596C941.268 208.495 942.12 208.191 942.871 207.682C943.619 207.147 944.172 206.418 944.53 205.496C944.915 204.57 945.039 203.457 944.901 202.158C944.764 200.859 944.41 199.797 943.84 198.972C943.27 198.147 942.565 197.565 941.725 197.225C940.908 196.855 940.035 196.72 939.107 196.818C938.153 196.919 937.301 197.237 936.553 197.772C935.806 198.307 935.239 199.037 934.854 199.963C934.467 200.862 934.342 201.961 934.479 203.26C934.617 204.56 934.957 205.623 935.501 206.451C936.07 207.275 936.777 207.871 937.62 208.238C938.461 208.578 939.358 208.697 940.313 208.596ZM967.39 218.487L963.86 190.065L969.02 189.424L969.37 192.242C969.897 191.29 970.635 190.419 971.585 189.629C972.561 188.836 973.87 188.338 975.51 188.134C977.363 187.904 979.073 188.149 980.64 188.868C982.207 189.587 983.511 190.674 984.552 192.13C985.593 193.586 986.236 195.307 986.483 197.292C986.726 199.25 986.521 201.062 985.868 202.729C985.215 204.395 984.217 205.769 982.873 206.849C981.526 207.903 979.927 208.546 978.074 208.776C976.592 208.96 975.261 208.843 974.08 208.425C972.926 208.004 971.945 207.347 971.135 206.453L972.55 217.846L967.39 218.487ZM976.366 204.433C977.451 204.298 978.386 203.927 979.17 203.319C979.954 202.711 980.53 201.941 980.898 201.008C981.266 200.076 981.381 199.054 981.243 197.942C981.102 196.804 980.739 195.828 980.154 195.014C979.566 194.174 978.817 193.555 977.908 193.157C976.999 192.759 976.001 192.628 974.916 192.763C973.831 192.897 972.897 193.269 972.112 193.877C971.354 194.481 970.791 195.25 970.424 196.183C970.082 197.112 969.982 198.145 970.123 199.283C970.265 200.421 970.615 201.399 971.173 202.216C971.758 203.03 972.492 203.638 973.374 204.039C974.284 204.436 975.281 204.568 976.366 204.433ZM996.718 206.36C995.239 206.561 993.921 206.471 992.766 206.09C991.637 205.705 990.734 205.102 990.057 204.279C989.38 203.456 988.968 202.503 988.82 201.419C988.54 199.358 989.064 197.672 990.393 196.361C991.718 195.024 993.583 194.191 995.987 193.864C997.123 193.71 998.112 193.656 998.952 193.703C999.793 193.75 1000.49 193.83 1001.04 193.943L1000.91 192.992C1000.73 191.618 1000.19 190.668 999.316 190.141C998.463 189.612 997.416 189.431 996.174 189.6C995.302 189.719 994.548 190.01 993.911 190.473C993.271 190.91 992.919 191.59 992.856 192.514L987.981 193.177C987.949 191.755 988.265 190.515 988.928 189.456C989.588 188.37 990.491 187.494 991.639 186.826C992.812 186.155 994.139 185.719 995.618 185.518C998.551 185.119 1000.93 185.508 1002.76 186.685C1004.62 187.859 1005.72 189.728 1006.07 192.291L1006.67 196.73C1006.81 197.734 1006.96 198.467 1007.13 198.928C1007.33 199.386 1007.57 199.662 1007.85 199.759C1008.13 199.855 1008.5 199.872 1008.95 199.811L1009.11 199.79L1009.69 204.11L1008.58 204.261C1007.18 204.451 1006 204.425 1005.02 204.181C1004.05 203.936 1003.27 203.301 1002.7 202.276C1002.17 203.29 1001.4 204.175 1000.4 204.93C999.399 205.686 998.172 206.162 996.718 206.36ZM997.334 202.279C998.18 202.164 998.868 201.882 999.399 201.433C999.953 200.954 1000.38 200.358 1000.69 199.643C1000.99 198.902 1001.17 198.125 1001.22 197.31C1000.64 197.227 999.976 197.17 999.218 197.139C998.483 197.077 997.746 197.097 997.006 197.197C995.975 197.338 995.175 197.689 994.606 198.251C994.059 198.782 993.842 199.458 993.953 200.277C994.05 200.99 994.394 201.536 994.983 201.913C995.599 202.287 996.383 202.409 997.334 202.279ZM1012.42 203.723L1009.56 184.09L1014.7 183.34L1015.14 186.348C1015.5 185.273 1016.03 184.4 1016.74 183.73C1017.45 183.034 1018.31 182.611 1019.34 182.461L1021.84 182.098L1022.51 186.689L1019.5 187.128C1018.55 187.266 1017.79 187.632 1017.23 188.226C1016.7 188.816 1016.36 189.633 1016.22 190.678C1016.07 191.723 1016.11 192.985 1016.32 194.463L1017.56 202.973L1012.42 203.723ZM1033.54 201.042C1032.06 201.272 1030.74 201.208 1029.58 200.85C1028.44 200.488 1027.53 199.902 1026.83 199.092C1026.14 198.283 1025.71 197.338 1025.54 196.258C1025.22 194.203 1025.71 192.507 1027.01 191.17C1028.31 189.806 1030.16 188.937 1032.56 188.563C1033.69 188.386 1034.68 188.313 1035.52 188.343C1036.36 188.374 1037.06 188.44 1037.61 188.542L1037.47 187.594C1037.25 186.224 1036.7 185.284 1035.81 184.775C1034.95 184.262 1033.9 184.102 1032.66 184.296C1031.79 184.432 1031.04 184.738 1030.41 185.213C1029.78 185.663 1029.45 186.35 1029.4 187.275L1024.54 188.034C1024.48 186.613 1024.77 185.366 1025.41 184.294C1026.05 183.196 1026.94 182.302 1028.07 181.612C1029.23 180.918 1030.55 180.456 1032.02 180.225C1034.95 179.768 1037.34 180.111 1039.19 181.252C1041.07 182.389 1042.2 184.235 1042.6 186.791L1043.3 191.217C1043.45 192.219 1043.62 192.948 1043.8 193.406C1044.01 193.859 1044.25 194.132 1044.53 194.222C1044.82 194.313 1045.18 194.323 1045.63 194.253L1045.79 194.228L1046.46 198.536L1045.36 198.709C1043.96 198.927 1042.77 198.924 1041.79 198.699C1040.81 198.474 1040.03 197.855 1039.44 196.84C1038.92 197.865 1038.17 198.765 1037.19 199.54C1036.2 200.315 1034.98 200.815 1033.54 201.042ZM1034.07 196.95C1034.91 196.818 1035.6 196.523 1036.12 196.063C1036.66 195.573 1037.08 194.968 1037.37 194.248C1037.66 193.501 1037.82 192.72 1037.86 191.905C1037.28 191.833 1036.61 191.789 1035.85 191.773C1035.12 191.726 1034.38 191.76 1033.64 191.875C1032.61 192.036 1031.82 192.403 1031.26 192.976C1030.73 193.518 1030.52 194.198 1030.65 195.015C1030.76 195.726 1031.12 196.264 1031.71 196.63C1032.34 196.991 1033.12 197.098 1034.07 196.95ZM1067.2 195.035L1056.57 176.754L1061.97 175.809L1069.46 189.644L1071.78 174.092L1077.14 173.154L1073.38 193.953L1067.2 195.035ZM1091.25 191.173C1089.28 191.541 1087.43 191.44 1085.7 190.87C1083.96 190.299 1082.49 189.327 1081.29 187.952C1080.08 186.577 1079.29 184.894 1078.92 182.902C1078.54 180.884 1078.67 179.029 1079.3 177.337C1079.93 175.618 1080.95 174.179 1082.36 173.02C1083.79 171.856 1085.48 171.092 1087.42 170.728C1089.39 170.36 1091.24 170.461 1092.97 171.032C1094.71 171.602 1096.18 172.574 1097.38 173.949C1098.59 175.297 1099.38 176.981 1099.75 178.999C1100.13 180.991 1100 182.846 1099.37 184.564C1098.74 186.283 1097.73 187.722 1096.31 188.881C1094.9 190.041 1093.22 190.805 1091.25 191.173ZM1090.43 186.769C1091.37 186.593 1092.19 186.221 1092.9 185.654C1093.61 185.061 1094.1 184.291 1094.38 183.342C1094.69 182.389 1094.73 181.27 1094.49 179.986C1094.25 178.702 1093.81 177.671 1093.17 176.894C1092.54 176.118 1091.79 175.594 1090.93 175.321C1090.08 175.018 1089.2 174.953 1088.28 175.124C1087.34 175.301 1086.52 175.686 1085.81 176.279C1085.11 176.872 1084.61 177.645 1084.3 178.598C1083.98 179.525 1083.94 180.631 1084.18 181.915C1084.43 183.2 1084.85 184.233 1085.46 185.014C1086.09 185.791 1086.84 186.328 1087.71 186.626C1088.58 186.898 1089.48 186.946 1090.43 186.769ZM1112.13 187.14C1109.57 187.652 1107.33 187.473 1105.42 186.604C1103.53 185.73 1102.28 184.307 1101.67 182.335L1106.89 181.294C1107.23 182.068 1107.82 182.631 1108.65 182.981C1109.51 183.327 1110.47 183.393 1111.54 183.179C1112.67 182.954 1113.48 182.575 1113.97 182.042C1114.49 181.504 1114.69 180.934 1114.57 180.332C1114.47 179.835 1114.18 179.485 1113.7 179.281C1113.23 179.077 1112.44 179.016 1111.34 179.099C1110.94 179.125 1110.41 179.149 1109.77 179.169C1109.12 179.19 1108.59 179.2 1108.18 179.2C1107.07 179.205 1106.02 179.061 1105.04 178.767C1104.05 178.474 1103.21 177.99 1102.5 177.315C1101.82 176.635 1101.36 175.707 1101.13 174.53C1100.79 172.804 1101.14 171.225 1102.18 169.792C1103.25 168.328 1105.03 167.348 1107.51 166.852C1110 166.357 1112.08 166.512 1113.76 167.318C1115.45 168.124 1116.58 169.502 1117.16 171.453L1112.22 172.44C1111.98 171.671 1111.48 171.158 1110.73 170.901C1109.99 170.64 1109.2 170.595 1108.33 170.767C1107.31 170.971 1106.57 171.323 1106.1 171.825C1105.62 172.301 1105.44 172.814 1105.55 173.363C1105.73 174.304 1106.72 174.759 1108.51 174.729C1108.78 174.703 1109.12 174.69 1109.52 174.69C1109.95 174.659 1110.4 174.638 1110.86 174.628C1111.31 174.591 1111.68 174.573 1111.95 174.573C1112.73 174.526 1113.51 174.548 1114.29 174.637C1115.06 174.726 1115.78 174.922 1116.44 175.226C1117.12 175.498 1117.7 175.94 1118.18 176.552C1118.68 177.159 1119.03 177.96 1119.23 178.953C1119.48 180.235 1119.38 181.437 1118.93 182.562C1118.47 183.66 1117.66 184.609 1116.52 185.408C1115.4 186.203 1113.94 186.78 1112.13 187.14ZM1135.53 181.824L1129.33 153.699L1134.41 152.58L1136.99 164.26C1137.38 163.08 1138.07 162.068 1139.06 161.222C1140.07 160.344 1141.28 159.751 1142.68 159.441C1145.08 158.913 1147.1 159.274 1148.74 160.523C1150.4 161.741 1151.55 163.808 1152.19 166.725L1154.59 177.623L1149.55 178.734L1147.26 168.304C1146.89 166.637 1146.27 165.449 1145.41 164.739C1144.56 163.997 1143.43 163.781 1142.03 164.091C1140.62 164.401 1139.57 165.151 1138.88 166.341C1138.18 167.506 1138.02 168.96 1138.41 170.705L1140.61 180.705L1135.53 181.824ZM1167.71 175.067C1165.77 175.523 1163.91 175.505 1162.16 175.013C1160.4 174.521 1158.88 173.616 1157.62 172.297C1156.35 170.978 1155.48 169.331 1155.02 167.358C1154.55 165.359 1154.6 163.5 1155.15 161.781C1155.7 160.037 1156.66 158.553 1158.01 157.332C1159.4 156.104 1161.05 155.265 1162.97 154.815C1164.92 154.359 1166.77 154.377 1168.53 154.869C1170.29 155.361 1171.8 156.266 1173.07 157.585C1174.33 158.878 1175.19 160.524 1175.66 162.523C1176.13 164.497 1176.08 166.356 1175.53 168.1C1174.98 169.845 1174.03 171.328 1172.67 172.55C1171.31 173.772 1169.66 174.611 1167.71 175.067ZM1166.69 170.705C1167.63 170.486 1168.44 170.077 1169.12 169.48C1169.79 168.856 1170.25 168.064 1170.49 167.104C1170.76 166.137 1170.74 165.018 1170.44 163.746C1170.15 162.474 1169.66 161.464 1169 160.716C1168.33 159.969 1167.55 159.479 1166.68 159.246C1165.82 158.981 1164.94 158.955 1164.03 159.168C1163.1 159.387 1162.29 159.808 1161.62 160.432C1160.94 161.056 1160.47 161.851 1160.2 162.817C1159.93 163.757 1159.94 164.864 1160.24 166.136C1160.54 167.408 1161.01 168.421 1161.65 169.174C1162.32 169.922 1163.09 170.425 1163.98 170.684C1164.85 170.917 1165.76 170.924 1166.69 170.705ZM1180.76 180.535L1179.76 176.538L1183.88 175.512C1184.26 175.415 1184.57 175.283 1184.81 175.114C1185.05 174.972 1185.24 174.717 1185.4 174.348C1185.55 173.98 1185.68 173.44 1185.78 172.728L1186.55 168.703L1186.83 170.983L1173.4 152.853L1178.87 151.488L1187.59 163.62L1189.82 148.759L1195.17 147.423L1190.76 173.343C1190.58 174.403 1190.4 175.26 1190.2 175.913C1190.04 176.586 1189.84 177.103 1189.6 177.465C1189.37 177.853 1189.04 178.153 1188.63 178.367C1188.25 178.599 1187.72 178.799 1187.05 178.967L1180.76 180.535ZM1226.83 159.945C1224.14 160.689 1221.64 160.756 1219.34 160.145C1217.06 159.501 1215.1 158.283 1213.48 156.491C1211.84 154.673 1210.64 152.389 1209.89 149.638C1209.13 146.888 1208.99 144.313 1209.46 141.914C1209.93 139.516 1210.98 137.456 1212.61 135.735C1214.26 134.007 1216.44 132.771 1219.14 132.027C1222.4 131.127 1225.29 131.203 1227.79 132.256C1230.32 133.301 1232.24 135.206 1233.56 137.969L1228 139.5C1227.29 138.119 1226.28 137.167 1224.98 136.642C1223.67 136.117 1222.12 136.102 1220.32 136.598C1218.67 137.052 1217.36 137.827 1216.39 138.924C1215.42 139.996 1214.8 141.327 1214.55 142.918C1214.3 144.509 1214.44 146.281 1214.98 148.235C1215.52 150.189 1216.3 151.784 1217.33 153.021C1218.36 154.232 1219.57 155.061 1220.96 155.506C1222.35 155.925 1223.87 155.908 1225.51 155.455C1227.31 154.959 1228.63 154.18 1229.48 153.118C1230.34 152.049 1230.74 150.736 1230.67 149.179L1236.19 147.659C1236.48 150.647 1235.81 153.225 1234.17 155.393C1232.54 157.528 1230.1 159.046 1226.83 159.945ZM1247.26 154.168C1245.83 154.589 1244.51 154.697 1243.31 154.494C1242.14 154.282 1241.15 153.821 1240.36 153.109C1239.57 152.397 1239.02 151.516 1238.71 150.467C1238.12 148.471 1238.39 146.726 1239.51 145.23C1240.62 143.709 1242.33 142.607 1244.66 141.923C1245.76 141.6 1246.73 141.399 1247.57 141.319C1248.41 141.24 1249.11 141.215 1249.67 141.243L1249.4 140.322C1249.01 138.992 1248.34 138.132 1247.4 137.744C1246.47 137.347 1245.41 137.326 1244.21 137.679C1243.36 137.927 1242.66 138.328 1242.1 138.881C1241.53 139.409 1241.29 140.135 1241.37 141.057L1236.64 142.443C1236.4 141.042 1236.53 139.768 1237.02 138.622C1237.51 137.45 1238.27 136.448 1239.31 135.616C1240.37 134.777 1241.62 134.147 1243.05 133.726C1245.89 132.892 1248.3 132.92 1250.28 133.81C1252.3 134.693 1253.66 136.375 1254.39 138.857L1255.66 143.156C1255.94 144.128 1256.2 144.829 1256.44 145.26C1256.7 145.683 1256.98 145.921 1257.28 145.973C1257.57 146.026 1257.93 145.989 1258.37 145.861L1258.52 145.816L1259.75 149.999L1258.68 150.315C1257.32 150.713 1256.14 150.865 1255.14 150.769C1254.14 150.674 1253.28 150.162 1252.56 149.233C1252.19 150.317 1251.56 151.307 1250.68 152.203C1249.81 153.1 1248.67 153.755 1247.26 154.168ZM1247.26 150.042C1248.07 149.801 1248.71 149.419 1249.17 148.896C1249.65 148.339 1249.98 147.684 1250.18 146.932C1250.37 146.154 1250.42 145.359 1250.35 144.546C1249.77 144.55 1249.1 144.594 1248.35 144.676C1247.61 144.726 1246.89 144.856 1246.17 145.066C1245.17 145.359 1244.43 145.826 1243.95 146.467C1243.49 147.075 1243.38 147.775 1243.61 148.568C1243.82 149.259 1244.24 149.747 1244.88 150.032C1245.54 150.309 1246.33 150.312 1247.26 150.042ZM1262.43 149.191L1256.59 130.227L1261.56 128.699L1262.46 131.604C1262.64 130.487 1263.04 129.543 1263.64 128.773C1264.23 127.977 1265.02 127.426 1266.02 127.12L1268.43 126.38L1269.79 130.815L1266.88 131.708C1265.97 131.99 1265.28 132.468 1264.81 133.14C1264.38 133.805 1264.17 134.664 1264.18 135.719C1264.2 136.774 1264.43 138.015 1264.87 139.442L1267.4 147.662L1262.43 149.191ZM1277.13 144.65L1271.09 125.752L1276.04 124.169L1276.97 127.064C1277.14 125.945 1277.52 124.997 1278.12 124.22C1278.7 123.417 1279.49 122.858 1280.48 122.541L1282.88 121.774L1284.29 126.194L1281.39 127.119C1280.48 127.412 1279.8 127.896 1279.34 128.574C1278.91 129.243 1278.71 130.105 1278.74 131.16C1278.77 132.214 1279.01 133.453 1279.46 134.875L1282.08 143.067L1277.13 144.65ZM1299.17 137.958C1297.24 138.6 1295.41 138.761 1293.68 138.441C1291.93 138.096 1290.4 137.342 1289.08 136.179C1287.76 134.991 1286.78 133.435 1286.13 131.513C1285.48 129.565 1285.31 127.698 1285.61 125.91C1285.94 124.113 1286.7 122.553 1287.89 121.228C1289.07 119.879 1290.63 118.879 1292.58 118.228C1294.45 117.604 1296.23 117.459 1297.92 117.796C1299.6 118.132 1301.07 118.865 1302.32 119.995C1303.59 121.116 1304.53 122.561 1305.12 124.332C1305.2 124.585 1305.29 124.863 1305.4 125.167C1305.5 125.47 1305.58 125.795 1305.64 126.141L1290.04 131.347L1289.03 128.311L1299.73 124.739C1299.25 123.551 1298.47 122.729 1297.39 122.274C1296.31 121.819 1295.16 121.794 1293.95 122.2C1293.04 122.504 1292.27 122.985 1291.65 123.643C1291.02 124.301 1290.62 125.11 1290.43 126.072C1290.26 127 1290.39 128.083 1290.8 129.323L1291.15 130.385C1291.51 131.447 1292.03 132.299 1292.72 132.939C1293.42 133.58 1294.2 133.993 1295.08 134.178C1295.95 134.338 1296.85 134.261 1297.78 133.949C1298.75 133.628 1299.48 133.143 1300 132.493C1300.51 131.844 1300.83 131.106 1300.95 130.279L1305.95 128.607C1306 129.914 1305.77 131.2 1305.26 132.465C1304.77 133.697 1304.01 134.793 1302.98 135.755C1301.96 136.717 1300.68 137.451 1299.17 137.958ZM1311.21 133.406L1304.66 114.678L1309.57 112.961L1310.57 115.831C1310.71 114.707 1311.07 113.749 1311.64 112.956C1312.2 112.138 1312.97 111.558 1313.96 111.214L1316.33 110.382L1317.87 114.762L1315 115.766C1314.09 116.083 1313.42 116.586 1312.98 117.275C1312.57 117.956 1312.39 118.823 1312.45 119.877C1312.51 120.93 1312.78 122.161 1313.28 123.571L1316.12 131.689L1311.21 133.406ZM1331.47 126.702C1330.07 127.215 1328.76 127.408 1327.55 127.283C1326.36 127.148 1325.35 126.751 1324.52 126.091C1323.68 125.432 1323.07 124.589 1322.7 123.562C1321.98 121.609 1322.13 119.849 1323.15 118.285C1324.16 116.695 1325.81 115.484 1328.09 114.651C1329.16 114.257 1330.12 113.994 1330.95 113.86C1331.78 113.727 1332.48 113.656 1333.04 113.648L1332.71 112.746C1332.24 111.444 1331.51 110.63 1330.54 110.303C1329.6 109.968 1328.53 110.015 1327.36 110.445C1326.53 110.747 1325.86 111.193 1325.33 111.781C1324.8 112.345 1324.6 113.085 1324.74 114L1320.12 115.689C1319.78 114.307 1319.83 113.027 1320.25 111.851C1320.66 110.65 1321.36 109.601 1322.33 108.704C1323.34 107.798 1324.54 107.088 1325.94 106.576C1328.72 105.559 1331.13 105.431 1333.17 106.191C1335.23 106.942 1336.71 108.532 1337.6 110.961L1339.13 115.169C1339.48 116.121 1339.79 116.804 1340.05 117.218C1340.34 117.623 1340.64 117.842 1340.93 117.876C1341.23 117.91 1341.59 117.849 1342.02 117.693L1342.17 117.638L1343.66 121.733L1342.61 122.118C1341.28 122.603 1340.12 122.83 1339.11 122.8C1338.11 122.77 1337.22 122.315 1336.44 121.434C1336.14 122.54 1335.57 123.568 1334.76 124.52C1333.94 125.471 1332.85 126.198 1331.47 126.702ZM1331.2 122.584C1332 122.291 1332.61 121.869 1333.03 121.317C1333.47 120.731 1333.77 120.056 1333.91 119.292C1334.05 118.504 1334.06 117.706 1333.93 116.9C1333.35 116.942 1332.69 117.029 1331.94 117.16C1331.21 117.257 1330.49 117.433 1329.79 117.689C1328.82 118.047 1328.11 118.56 1327.67 119.231C1327.25 119.867 1327.18 120.574 1327.47 121.35C1327.71 122.026 1328.17 122.486 1328.82 122.728C1329.5 122.962 1330.3 122.914 1331.2 122.584ZM1353.91 118.318C1351.47 119.257 1349.23 119.46 1347.2 118.928C1345.19 118.387 1343.72 117.197 1342.78 115.357L1347.74 113.446C1348.22 114.15 1348.89 114.605 1349.77 114.809C1350.67 115.005 1351.64 114.906 1352.66 114.513C1353.73 114.101 1354.46 113.59 1354.85 112.982C1355.27 112.363 1355.37 111.768 1355.15 111.195C1354.97 110.722 1354.63 110.426 1354.12 110.305C1353.62 110.185 1352.83 110.259 1351.76 110.527C1351.37 110.621 1350.86 110.733 1350.22 110.863C1349.59 110.994 1349.07 111.094 1348.67 111.163C1347.57 111.356 1346.51 111.392 1345.49 111.27C1344.47 111.148 1343.56 110.814 1342.75 110.268C1341.96 109.713 1341.36 108.876 1340.92 107.756C1340.29 106.113 1340.37 104.498 1341.16 102.908C1341.96 101.284 1343.55 100.018 1345.91 99.1074C1348.28 98.1973 1350.36 97.9966 1352.15 98.5054C1353.95 99.0141 1355.3 100.181 1356.2 102.005L1351.5 103.816C1351.13 103.098 1350.56 102.677 1349.77 102.553C1349 102.419 1348.21 102.51 1347.39 102.826C1346.41 103.2 1345.74 103.674 1345.36 104.248C1344.97 104.798 1344.88 105.334 1345.08 105.856C1345.42 106.752 1346.48 107.034 1348.23 106.7C1348.49 106.629 1348.82 106.559 1349.22 106.49C1349.64 106.386 1350.08 106.291 1350.53 106.202C1350.97 106.089 1351.33 106.01 1351.59 105.964C1352.35 105.785 1353.12 105.674 1353.91 105.63C1354.69 105.586 1355.43 105.657 1356.13 105.845C1356.85 105.998 1357.49 106.335 1358.07 106.858C1358.66 107.371 1359.14 108.1 1359.51 109.046C1359.98 110.265 1360.08 111.467 1359.83 112.653C1359.56 113.813 1358.93 114.884 1357.93 115.867C1356.97 116.84 1355.62 117.657 1353.91 118.318ZM1384.68 105.952C1382.96 106.674 1381.24 106.904 1379.51 106.645C1377.81 106.375 1376.26 105.68 1374.86 104.558C1373.46 103.412 1372.37 101.929 1371.61 100.109C1370.84 98.2638 1370.55 96.4633 1370.74 94.707C1370.92 92.9262 1371.51 91.3467 1372.53 89.9684C1373.55 88.5552 1374.93 87.4881 1376.65 86.7671C1378.03 86.1902 1379.33 85.9488 1380.55 86.043C1381.8 86.1269 1382.92 86.4951 1383.92 87.1477L1379.42 76.4112L1384.22 74.4025L1395.35 100.967L1390.55 102.976L1389.45 100.356C1389.23 101.405 1388.75 102.443 1388.02 103.469C1387.32 104.486 1386.21 105.314 1384.68 105.952ZM1383.97 101.351C1384.98 100.928 1385.77 100.324 1386.33 99.5372C1386.93 98.7402 1387.26 97.8483 1387.34 96.8615C1387.43 95.8398 1387.26 94.8124 1386.83 93.7793C1386.39 92.7217 1385.77 91.8797 1384.99 91.2534C1384.23 90.6169 1383.36 90.2297 1382.38 90.092C1381.42 89.944 1380.44 90.0812 1379.43 90.5035C1378.44 90.9156 1377.66 91.5201 1377.07 92.3171C1376.47 93.114 1376.13 94.0111 1376.02 95.0082C1375.91 95.9807 1376.08 96.9958 1376.52 98.0535C1376.96 99.1111 1377.58 99.9654 1378.37 100.616C1379.16 101.243 1380.04 101.625 1381.02 101.762C1382 101.9 1382.99 101.763 1383.97 101.351ZM1407.62 96.0889C1405.77 96.9109 1403.96 97.2454 1402.2 97.0927C1400.43 96.9156 1398.83 96.3108 1397.41 95.2783C1395.98 94.2214 1394.85 92.7667 1394.03 90.9142C1393.2 89.0373 1392.85 87.1946 1392.98 85.386C1393.13 83.5666 1393.74 81.9411 1394.8 80.5094C1395.84 79.0534 1397.31 77.909 1399.18 77.0763C1400.99 76.276 1402.74 75.963 1404.45 76.1374C1406.17 76.3118 1407.7 76.9016 1409.05 77.907C1410.42 78.9016 1411.49 80.252 1412.24 81.9582C1412.35 82.202 1412.47 82.4701 1412.6 82.7626C1412.73 83.0551 1412.84 83.3706 1412.93 83.7091L1397.91 90.3765L1396.61 87.4515L1406.92 82.8768C1406.33 81.7392 1405.47 80.9954 1404.35 80.6455C1403.24 80.2955 1402.09 80.38 1400.92 80.8991C1400.04 81.2885 1399.33 81.8404 1398.77 82.5548C1398.21 83.2693 1397.88 84.1138 1397.79 85.0885C1397.71 86.028 1397.94 87.0949 1398.47 88.2893L1398.92 89.3131C1399.38 90.3368 1399.98 91.1346 1400.73 91.7064C1401.48 92.2781 1402.3 92.6144 1403.19 92.7152C1404.07 92.7915 1404.96 92.6296 1405.86 92.2295C1406.79 91.8185 1407.48 91.2653 1407.93 90.5697C1408.38 89.8741 1408.62 89.1094 1408.66 88.2755L1413.48 86.1341C1413.65 87.4312 1413.54 88.7335 1413.16 90.041C1412.79 91.3133 1412.14 92.4772 1411.21 93.5325C1410.28 94.5879 1409.08 95.44 1407.62 96.0889ZM1419.19 90.4006L1407.1 64.2602L1411.82 62.0776L1423.91 88.2181L1419.19 90.4006Z" fill="white"/>
</g>
<defs>
<clipPath id="clip0_75_342">
<rect width="1440" height="286" fill="white"/>
</clipPath>
</defs>
</svg>
