<svg width="281" height="169" viewBox="0 0 281 169" fill="none" xmlns="http://www.w3.org/2000/svg">
<g clip-path="url(#clip0_2_37)">
<path d="M241.564 73.2216C245.009 73.7401 247.896 74.659 249.591 76.6619C250.426 77.6492 250.71 78.5869 250.676 79.4955C250.642 80.4279 250.272 81.3935 249.681 82.412C248.5 84.4496 246.298 86.942 243.443 90.1664L228.619 106.907C227.091 108.632 225.886 109.991 224.762 110.921C223.636 111.851 222.365 112.552 220.56 112.591C219.691 112.61 218.787 112.51 217.895 112.295C216.022 111.843 214.595 110.818 213.296 109.586C212.017 108.372 210.604 106.704 208.84 104.619L208.144 103.795C207.471 103 207.252 102.751 207.014 102.551C206.538 102.151 205.957 101.839 205.332 101.638L205.331 101.637C205.179 101.588 205.014 101.547 204.738 101.491L203.475 101.255L203.183 101.203C201.239 100.854 199.696 100.576 198.464 100.302C197.368 100.058 196.402 99.7916 195.527 99.4259L195.156 99.2626C191.646 97.63 189.491 94.9332 189.353 92.4121C189.316 91.7413 189.497 91.0739 189.83 90.2875C190.158 89.5108 190.656 88.5679 191.3 87.3508L191.324 87.3047C191.694 86.6063 191.837 86.3269 191.897 86.0477C192.022 85.4639 191.9 84.8652 191.598 84.3296C191.46 84.0844 191.252 83.8308 190.605 83.0668L190.605 83.0665L189.83 82.1498C188.016 80.0061 186.57 78.295 185.67 76.9198C184.729 75.4802 184.293 74.2744 184.704 73.2274C184.881 72.7785 185.167 72.3589 185.561 71.9873C186.529 71.0766 188.155 70.7454 190.16 70.6523C192.088 70.5627 194.651 70.6816 197.833 70.83L227.823 72.2276C233.61 72.4972 238.164 72.7101 241.564 73.2216Z" fill="#F0EC06" stroke="black" stroke-width="1.25628"/>
<path d="M28.1353 99.0956C115.78 122.083 142.829 49.9006 100.393 56.9529C57.9569 64.0053 112.438 131.256 183.119 102.406" stroke="black" stroke-width="0.628138" stroke-dasharray="2.83 2.83"/>
</g>
<defs>
<clipPath id="clip0_2_37">
<rect width="262.248" height="105.841" fill="white" transform="translate(26.8522) rotate(14.6967)"/>
</clipPath>
</defs>
</svg>
