<svg width="85" height="28" viewBox="0 0 85 28" fill="none" xmlns="http://www.w3.org/2000/svg">
<path d="M0 27.4451V0.85876H17.433V5.15056H5.31727V12.025H15.0023V16.2029H5.31727V27.4451H0Z" fill="#AD0BD6"/>
<path d="M26.9196 27.9009C25.0205 27.9009 23.2987 27.4831 21.7542 26.6475C20.235 25.8119 19.0196 24.6472 18.1081 23.1533C17.2219 21.6594 16.7788 19.9503 16.7788 18.0259C16.7788 16.0763 17.2219 14.3671 18.1081 12.8986C19.0196 11.4047 20.2477 10.2399 21.7922 9.40437C23.3367 8.5688 25.0458 8.15101 26.9196 8.15101C28.8186 8.15101 30.5277 8.5688 32.0469 9.40437C33.5915 10.2399 34.8068 11.4047 35.693 12.8986C36.6046 14.3671 37.0603 16.0763 37.0603 18.0259C37.0603 19.9503 36.6046 21.6594 35.693 23.1533C34.8068 24.6472 33.5915 25.8119 32.0469 26.6475C30.5277 27.4831 28.8186 27.9009 26.9196 27.9009ZM26.9196 23.3052C27.7804 23.3052 28.5654 23.1153 29.2743 22.7355C29.9833 22.3304 30.5404 21.7354 30.9455 20.9504C31.3759 20.1655 31.5912 19.1907 31.5912 18.0259C31.5912 16.8612 31.3759 15.8864 30.9455 15.1014C30.515 14.3165 29.9453 13.7341 29.2364 13.3543C28.5527 12.9492 27.7931 12.7466 26.9575 12.7466C26.0966 12.7466 25.3117 12.9492 24.6027 13.3543C23.8938 13.7341 23.3241 14.3165 22.8936 15.1014C22.4632 15.861 22.248 16.8359 22.248 18.0259C22.248 19.1907 22.4505 20.1655 22.8556 20.9504C23.2861 21.7354 23.8558 22.3304 24.5648 22.7355C25.2737 23.1153 26.0587 23.3052 26.9196 23.3052Z" fill="#AD0BD6"/>
<path d="M39.2318 27.4451V0.0991516H44.549V27.4451H39.2318Z" fill="#AD0BD6"/>
<path d="M55.3322 27.9009C52.8002 27.9009 50.7239 27.3058 49.1034 26.1158C47.4829 24.9257 46.5714 23.3685 46.3688 21.4442H51.8C51.9773 22.1785 52.4077 22.7735 53.0914 23.2293C53.775 23.6597 54.5853 23.8749 55.5221 23.8749C56.5602 23.8749 57.3452 23.6977 57.8769 23.3432C58.4339 22.9634 58.7125 22.5076 58.7125 21.9759C58.7125 21.5455 58.5099 21.2036 58.1048 20.9504C57.6997 20.6719 57.0033 20.482 56.0159 20.3807C55.6614 20.3301 55.1676 20.2541 54.5346 20.1528C53.9269 20.0516 53.4332 19.9629 53.0534 19.887C51.9899 19.6844 51.0151 19.3553 50.1289 18.8995C49.268 18.4184 48.5843 17.7981 48.0779 17.0384C47.5715 16.2535 47.3183 15.304 47.3183 14.1899C47.3183 12.4934 47.9513 11.0628 49.2174 9.89811C50.4834 8.73338 52.3444 8.15101 54.8005 8.15101C57.2819 8.15101 59.2315 8.6954 60.6495 9.78417C62.0927 10.8729 62.903 12.3795 63.0802 14.3038H57.9529C57.8769 13.6202 57.5351 13.1011 56.9274 12.7466C56.3197 12.3922 55.6234 12.2149 54.8385 12.2149C53.8763 12.2149 53.1547 12.3795 52.6736 12.7087C52.1925 13.0378 51.9519 13.443 51.9519 13.924C51.9519 14.709 52.7369 15.2407 54.3067 15.5192C54.5346 15.5445 54.8511 15.5952 55.2562 15.6711C55.6867 15.7218 56.1171 15.7851 56.5476 15.861C57.0033 15.9117 57.3578 15.9623 57.611 16.013C58.3706 16.1143 59.1049 16.2915 59.8139 16.5447C60.5482 16.7726 61.1939 17.0891 61.7509 17.4942C62.3333 17.8993 62.789 18.4311 63.1182 19.0894C63.4474 19.7477 63.612 20.558 63.612 21.5201C63.612 22.7862 63.2954 23.9002 62.6624 24.8624C62.0294 25.8246 61.0926 26.5715 59.8519 27.1033C58.6365 27.635 57.13 27.9009 55.3322 27.9009Z" fill="#AD0BD6"/>
<path d="M72.0994 27.9009C70.7068 27.9009 69.5041 27.6477 68.4913 27.1412C67.4785 26.6348 66.6935 25.9512 66.1365 25.0903C65.6047 24.2294 65.3389 23.2799 65.3389 22.2418C65.3389 20.2921 66.0352 18.7855 67.4278 17.7221C68.8457 16.6333 70.6941 16.0889 72.973 16.0889C74.0617 16.0889 74.9859 16.1649 75.7455 16.3168C76.5305 16.4687 77.1635 16.6207 77.6446 16.7726V15.861C77.6446 14.6204 77.2774 13.7215 76.5431 13.1644C75.8342 12.6074 74.9226 12.3289 73.8085 12.3289C73.0489 12.3289 72.3653 12.4808 71.7576 12.7846C71.1499 13.0885 70.7574 13.6455 70.5802 14.4558H65.6048C65.7567 13.1138 66.1998 11.9744 66.9341 11.0375C67.6937 10.1007 68.6685 9.39171 69.8586 8.91062C71.0486 8.40421 72.3653 8.15101 73.8085 8.15101C76.6444 8.15101 78.8726 8.822 80.4931 10.164C82.1389 11.4806 82.9618 13.3797 82.9618 15.861V19.773C82.9618 20.7352 83.0125 21.4568 83.1137 21.9379C83.2403 22.3937 83.4303 22.6849 83.6835 22.8115C83.9367 22.9381 84.2658 23.0014 84.6709 23.0014H84.8229V27.4451H83.6455C82.2782 27.4451 81.1388 27.2805 80.2272 26.9513C79.3157 26.5969 78.6447 25.9259 78.2143 24.9384C77.5559 25.7993 76.7077 26.5082 75.6696 27.0653C74.6314 27.6223 73.4414 27.9009 72.0994 27.9009ZM73.3528 23.8749C74.0871 23.8749 74.7074 23.723 75.2138 23.4192C75.7455 23.09 76.1886 22.6469 76.5431 22.0898C76.8976 21.5075 77.1635 20.8618 77.3407 20.1528C76.8343 20.0009 76.2393 19.8617 75.5556 19.7351C74.8973 19.5831 74.2263 19.5072 73.5427 19.5072C72.7577 19.5072 72.0868 19.7097 71.5297 20.1149C70.9727 20.4947 70.6941 21.0517 70.6941 21.786C70.6941 22.3937 70.9347 22.9001 71.4158 23.3052C71.8969 23.685 72.5425 23.8749 73.3528 23.8749Z" fill="#AD0BD6"/>
</svg>
