<svg width="467" height="670" viewBox="0 0 467 670" fill="none" xmlns="http://www.w3.org/2000/svg">
<g clip-path="url(#clip0_17_391)">
<path d="M280.309 54.4147C274.404 54.2982 269.317 55.0095 265.914 57.8729C264.236 59.2844 263.495 60.7705 263.292 62.2984C263.109 63.6704 263.349 65.1584 263.878 66.762L264.122 67.4558C265.515 71.1973 268.484 75.9901 272.335 82.1922L292.329 114.394C294.39 117.713 296.016 120.328 297.629 122.202C299.143 123.96 300.929 125.418 303.623 126.071L304.174 126.191C305.621 126.47 307.159 126.561 308.711 126.457C311.97 126.236 314.647 124.928 317.169 123.24C319.653 121.577 322.49 119.192 326.031 116.212L327.43 115.036C328.782 113.898 329.218 113.544 329.673 113.278C330.469 112.812 331.38 112.482 332.334 112.301L332.745 112.233L333.183 112.185C333.512 112.16 333.946 112.147 334.658 112.137L335.956 112.123L336.459 112.118C339.807 112.089 342.465 112.066 344.602 111.959C346.775 111.85 348.67 111.644 350.424 111.166L350.425 111.166C356.755 109.439 361.125 105.548 362.076 101.375C362.329 100.264 362.217 99.0972 361.886 97.6885C361.56 96.297 360.996 94.5792 360.267 92.3617L360.267 92.3607L360.239 92.2772C359.82 91.0046 359.66 90.4974 359.639 90.0136C359.596 89.0023 359.972 88.0374 360.629 87.2287C360.855 86.9509 361.148 86.677 361.829 86.0961L362.649 85.4014L364.206 84.0914C367.849 81.0264 370.754 78.58 372.65 76.5386C374.634 74.4017 375.704 72.5107 375.316 70.644C375.149 69.8436 374.792 69.0611 374.238 68.3278C372.881 66.5297 370.258 65.5133 366.933 64.7855C363.737 64.0859 359.422 63.5536 354.062 62.8937L303.552 56.6729C293.806 55.4727 286.136 54.5297 280.309 54.4147ZM331.731 106.944C333.126 106.744 334.541 106.734 336.169 106.72C336.273 106.719 336.37 106.719 336.472 106.717L336.474 106.717L336.85 106.714C340.354 106.684 342.774 106.661 344.645 106.568C346.504 106.474 347.439 106.324 348.035 106.161C348.559 106.018 349.059 105.848 349.533 105.653L350.342 107.623C349.785 107.851 349.202 108.05 348.596 108.216C347.78 108.438 346.666 108.598 344.751 108.695C342.826 108.791 340.354 108.813 336.869 108.844L336.495 108.846L336.494 108.847C336.39 108.848 336.283 108.848 336.186 108.849L336.187 108.848C334.526 108.862 333.26 108.875 332.033 109.051C329.793 109.371 327.688 110.089 325.935 111.116C324.981 111.674 324.17 112.354 323.075 113.275L322.874 113.446L321.651 114.474C317.926 117.609 315.303 119.81 313.104 121.282C311.038 122.665 309.801 123.086 308.878 123.186L308.697 123.201C308.027 123.246 307.356 123.218 306.709 123.116L306.433 123.067C305.484 122.885 304.366 122.321 302.86 120.573C301.382 118.855 299.837 116.376 297.684 112.908L298.589 112.346L299.493 111.785C301.683 115.312 303.13 117.621 304.475 119.183C305.776 120.695 306.5 120.911 306.835 120.976C307.38 121.081 307.963 121.117 308.553 121.077C308.975 121.048 309.872 120.883 311.92 119.513L311.919 119.513C313.998 118.121 316.517 116.011 320.279 112.845L320.28 112.845L321.503 111.816L321.502 111.816C321.57 111.759 321.637 111.703 321.701 111.649L321.703 111.647L322.487 110.991C323.259 110.354 324.006 109.777 324.859 109.278C326.872 108.1 329.244 107.299 331.731 106.944ZM354.351 100.676C354.37 100.355 354.331 99.8386 354.124 98.9531C353.839 97.7399 353.328 96.1794 352.565 93.8567L352.566 93.8556L352.501 93.6629C352.166 92.6479 351.828 91.645 351.784 90.5946C351.698 88.5792 352.442 86.6001 353.838 84.8818C354.379 84.2164 355.044 83.6082 355.776 82.9815L356.527 82.3459L356.722 82.1818L358.097 81.0246C361.968 77.7672 364.536 75.5971 366.121 73.8903C366.902 73.0486 367.265 72.5035 367.426 72.1669C367.504 72.0057 367.526 71.9102 367.532 71.8666C367.538 71.8297 367.535 71.818 367.534 71.8163C367.485 71.5822 367.379 71.3418 367.201 71.1061L367.2 71.1071C367.141 71.0285 366.739 70.5429 364.027 69.9494C361.35 69.3633 357.525 68.8862 351.829 68.1848L351.96 67.1272L352.09 66.0706C357.739 66.7663 361.685 67.2569 364.483 67.8695C367.038 68.4287 368.184 68.9936 368.787 69.6841L368.9 69.8238C369.252 70.2907 369.502 70.8167 369.619 71.3823C369.835 72.4205 369.323 73.5706 367.681 75.339C365.985 77.166 363.291 79.4378 359.469 82.6544L358.093 83.8117C358.025 83.8685 357.966 83.9185 357.898 83.9758C356.826 84.8769 356.058 85.5268 355.491 86.225C354.365 87.6109 353.851 89.0932 353.911 90.5037C353.941 91.2024 354.166 91.9101 354.524 92.9956L354.588 93.1913C355.339 95.4767 355.886 97.1419 356.197 98.4671C356.508 99.7904 356.558 100.685 356.389 101.425C356.291 101.854 356.149 102.274 355.966 102.678L355.495 103.722L354.488 103.175L274.693 59.8377L275.708 57.966L354.351 100.676ZM271.1 63.1631C271.149 63.7987 271.337 64.6338 271.747 65.737C272.982 69.0564 275.718 73.4934 279.737 79.9649L278.832 80.5257L277.927 81.0876C273.965 74.7067 271.079 70.0499 269.751 66.48L269.751 66.4791C269.297 65.258 269.046 64.2216 268.977 63.3272L271.1 63.1631Z" fill="#F0EC06" stroke="black" stroke-width="2.12954"/>
<path d="M306.365 552.634C619.516 199.72 304.653 218.555 353.927 302.074C403.202 385.594 507.649 256.605 378.469 131.42" stroke="black" stroke-width="1.06477" stroke-dasharray="4.79 4.79"/>
</g>
<defs>
<clipPath id="clip0_17_391">
<rect width="443.646" height="514.719" fill="white" transform="matrix(-0.861663 -0.50748 -0.50748 0.861663 643.669 225.744)"/>
</clipPath>
</defs>
</svg>
