<svg width="164" height="164" viewBox="0 0 164 164" fill="none" xmlns="http://www.w3.org/2000/svg">
<g clip-path="url(#clip0_90_207)">
<path d="M136.333 78.604H20.875V139.729C20.875 143.48 23.9158 146.521 27.6667 146.521H136.333C140.084 146.521 143.125 143.48 143.125 139.729V85.3957C143.125 81.6446 140.084 78.604 136.333 78.604Z" stroke="#049C78" stroke-width="8.15" stroke-linejoin="round"/>
<path d="M11.3667 50.7584L119.862 11.2693C123.387 9.98646 127.284 11.8038 128.567 15.3285L133.213 28.0927C134.496 31.6174 132.678 35.5148 129.153 36.7976L20.6582 76.2868L11.3667 50.7584Z" stroke="#049C78" stroke-width="8.15" stroke-linejoin="round"/>
<path d="M107.098 15.9155L103.625 46.0896" stroke="#049C78" stroke-width="8.15"/>
<path d="M81.5693 25.2068L78.0967 55.3809" stroke="#049C78" stroke-width="8.15"/>
<path d="M56.0412 34.4985L52.5686 64.6726" stroke="#049C78" stroke-width="8.15"/>
<path d="M30.5127 43.7898L27.04 73.964" stroke="#049C78" stroke-width="8.15"/>
</g>
<defs>
<clipPath id="clip0_90_207">
<rect width="163" height="163" fill="white" transform="translate(0.5 0.5)"/>
</clipPath>
</defs>
</svg>
