<svg width="164" height="163" viewBox="0 0 164 163" fill="none" xmlns="http://www.w3.org/2000/svg">
<path d="M82 16.7C37.5007 16.7 0.500008 45.1762 0.500008 81.4999V81.5161C0.51726 85.5575 1.00788 89.5941 1.96446 93.5554C2.09832 94.1095 2.34833 94.6293 2.69813 95.0808C3.04793 95.5324 3.48967 95.9054 3.99446 96.1757C4.49925 96.446 5.05575 96.6073 5.62757 96.6492C6.19939 96.6911 6.77368 96.6126 7.3129 96.4189C8.6738 95.9325 10.0399 95.491 11.4357 95.1058C37.8953 88.063 63.4861 100.386 69.2179 121.652C70.8472 127.755 70.7239 134.23 68.8358 140.621C68.6668 141.192 68.6266 141.793 68.7179 142.381C68.8093 142.97 69.03 143.531 69.3644 144.025C69.6988 144.519 70.1385 144.933 70.6525 145.239C71.1664 145.545 71.7418 145.734 72.3378 145.794C75.534 146.115 78.7472 146.281 81.9682 146.3H82C126.499 146.3 163.5 117.824 163.5 81.4999C163.5 45.1762 126.499 16.7 82 16.7ZM82 24.7999C123.022 24.7999 155.35 50.7211 155.35 81.4999C155.35 112.27 123.038 138.186 82.0318 138.2C80.2704 138.189 78.518 138.024 76.763 137.915C77.8452 131.761 78.6711 125.518 77.0814 119.564C70.0053 93.3095 39.4156 79.3076 9.36632 87.2902C9.09793 85.354 8.65832 83.4319 8.65001 81.4841C8.66097 50.7122 40.985 24.7999 82 24.7999ZM77.925 32.8999C71.2216 32.8999 65.7 38.3877 65.7 45.0499C65.7 51.7122 71.2216 57.1999 77.925 57.1999C84.6284 57.1999 90.15 51.7122 90.15 45.0499C90.15 38.3877 84.6284 32.8999 77.925 32.8999ZM45.325 40.9999C38.6216 40.9999 33.1 46.4877 33.1 53.1499C33.1 59.8122 38.6216 65.2999 45.325 65.2999C52.0284 65.2999 57.55 59.8122 57.55 53.1499C57.55 46.4877 52.0284 40.9999 45.325 40.9999ZM77.925 40.9999C80.2238 40.9999 82 42.7652 82 45.0499C82 47.3347 80.2238 49.0999 77.925 49.0999C75.6262 49.0999 73.85 47.3347 73.85 45.0499C73.85 42.7652 75.6262 40.9999 77.925 40.9999ZM110.525 40.9999C103.822 40.9999 98.3 46.4877 98.3 53.1499C98.3 59.8122 103.822 65.2999 110.525 65.2999C117.228 65.2999 122.75 59.8122 122.75 53.1499C122.75 46.4877 117.228 40.9999 110.525 40.9999ZM45.325 49.0999C47.6238 49.0999 49.4 50.8652 49.4 53.1499C49.4 55.4347 47.6238 57.1999 45.325 57.1999C43.0262 57.1999 41.25 55.4347 41.25 53.1499C41.25 50.8652 43.0262 49.0999 45.325 49.0999ZM110.525 49.0999C112.824 49.0999 114.6 50.8652 114.6 53.1499C114.6 55.4347 112.824 57.1999 110.525 57.1999C108.226 57.1999 106.45 55.4347 106.45 53.1499C106.45 50.8652 108.226 49.0999 110.525 49.0999ZM134.975 65.2999C128.272 65.2999 122.75 70.7877 122.75 77.4499C122.75 84.1122 128.272 89.5999 134.975 89.5999C141.678 89.5999 147.2 84.1122 147.2 77.4499C147.2 70.7877 141.678 65.2999 134.975 65.2999ZM134.975 73.3999C137.274 73.3999 139.05 75.1652 139.05 77.4499C139.05 79.7347 137.274 81.4999 134.975 81.4999C132.676 81.4999 130.9 79.7347 130.9 77.4499C130.9 75.1652 132.676 73.3999 134.975 73.3999ZM110.525 97.6999C103.822 97.6999 98.3 103.188 98.3 109.85C98.3 116.512 103.822 122 110.525 122C117.228 122 122.75 116.512 122.75 109.85C122.75 103.188 117.228 97.6999 110.525 97.6999ZM110.525 105.8C112.824 105.8 114.6 107.565 114.6 109.85C114.6 112.135 112.824 113.9 110.525 113.9C108.226 113.9 106.45 112.135 106.45 109.85C106.45 107.565 108.226 105.8 110.525 105.8Z" fill="#049C78"/>
</svg>
