<svg width="164" height="164" viewBox="0 0 164 164" fill="none" xmlns="http://www.w3.org/2000/svg">
<path d="M82.2341 136.468C112.187 136.468 136.468 112.187 136.468 82.2341C136.468 52.2814 112.187 28 82.2341 28C52.2814 28 28 52.2814 28 82.2341C28 112.187 52.2814 136.468 82.2341 136.468Z" stroke="#049C78" stroke-width="5.86315" stroke-linejoin="round"/>
<path d="M82.5275 28C82.5275 28 61.4202 46.078 61.4202 82.2341C61.4202 118.39 82.5275 136.468 82.5275 136.468" stroke="#049C78" stroke-width="5.86315" stroke-linejoin="round"/>
<path d="M82.5276 28C82.5276 28 103.049 46.078 103.049 82.2341C103.049 118.39 82.5276 136.468 82.5276 136.468" stroke="#049C78" stroke-width="5.86315" stroke-linejoin="round"/>
<path d="M28 81.9412H136.468" stroke="#049C78" stroke-width="5.86315" stroke-linejoin="round"/>
<path d="M127.673 54.9705H36.7947" stroke="#049C78" stroke-width="5.86315" stroke-linejoin="round"/>
<path d="M127.429 109.058H37.0391" stroke="#049C78" stroke-width="4.88595" stroke-linejoin="round"/>
</svg>
