<svg width="69" height="40" viewBox="0 0 69 40" fill="none" xmlns="http://www.w3.org/2000/svg">
<mask id="mask0_15_30" style="mask-type:luminance" maskUnits="userSpaceOnUse" x="0" y="0" width="69" height="40">
<path d="M68.9999 0H0.618164V39.5148H68.9999V0Z" fill="white"/>
</mask>
<g mask="url(#mask0_15_30)">
<path d="M0.677368 26.8084C0.677368 19.7573 6.45074 14.2678 13.9751 14.2678C18.3288 14.2678 22.304 16.208 24.5755 19.1421L21.3101 22.4073C20.4441 21.2984 19.339 20.3992 18.0772 19.7765C16.8155 19.1538 15.4294 18.8238 14.0224 18.8108C9.5267 18.8108 5.93019 22.1708 5.93019 26.8084C5.93019 31.4934 9.5267 34.8533 14.0224 34.8533C15.4798 34.8516 16.9171 34.5132 18.2222 33.8648C19.5273 33.2163 20.6651 32.2752 21.5468 31.1148L24.7647 34.2855C22.5879 37.3614 18.4234 39.3963 13.9751 39.3963C6.45074 39.3963 0.677368 33.9068 0.677368 26.8084Z" fill="black"/>
<path d="M29.0238 15.1196H34.182V38.5445H29.0238V15.1196Z" fill="black"/>
<path d="M43.7887 32.2505V19.4733H38.1572V15.1196H44.0252V10.1033L48.8523 7.73718V15.1196H56.5186V19.4733H48.8523V31.3987C48.8523 33.7649 50.1773 34.806 52.6854 34.806C53.9904 34.8127 55.2816 34.5383 56.4712 34.0014V38.4499C54.9807 39.1038 53.3662 39.4268 51.7389 39.3962C47.1486 39.3962 43.7887 36.8882 43.7887 32.2505Z" fill="black"/>
<path d="M60.5884 15.1196H65.7466V38.5445H60.5884V15.1196Z" fill="black"/>
<path d="M47.3378 0.212966C51.5741 0.202831 55.7508 1.21232 59.5149 3.15607C63.279 5.09994 66.5201 7.92106 68.9645 11.3812H62.9545C60.9845 9.19162 58.5762 7.4408 55.8859 6.24228C53.1954 5.04377 50.2831 4.42443 47.3378 4.42443C44.3926 4.42443 41.4801 5.04377 38.7898 6.24228C36.0993 7.4408 33.6911 9.19162 31.7212 11.3812H25.7112C28.1555 7.92106 31.3966 5.09994 35.1607 3.15607C38.9249 1.21232 43.1014 0.202831 47.3378 0.212966Z" fill="black"/>
</g>
</svg>
