<svg width="42" height="28" viewBox="0 0 42 28" fill="none" xmlns="http://www.w3.org/2000/svg">
<g clip-path="url(#clip0_2_178)">
<mask id="mask0_2_178" style="mask-type:luminance" maskUnits="userSpaceOnUse" x="0" y="0" width="42" height="28">
<path d="M0.193481 27.5074H41.6923V0.0069809H0.193481V27.5074Z" fill="white"/>
</mask>
<g mask="url(#mask0_2_178)">
<path d="M30.4551 2.30473C25.4912 2.30473 18.7351 0.657724 11.5655 0.108839C4.3954 -0.440279 0.193481 1.40986 0.193481 1.40986V26.6126C0.193481 26.6126 4.3954 24.7624 11.5655 25.3115C18.7351 25.8605 25.4912 27.5074 30.4551 27.5074C35.4184 27.5074 41.6931 26.065 41.6931 26.065V0.862249C41.6931 0.862249 35.4184 2.30473 30.4551 2.30473Z" fill="black"/>
<path d="M17.1889 14.2526H21.3838C22.4104 14.2526 23.2448 15.0683 23.2448 16.0907C23.2448 17.1124 22.4104 17.9435 21.3838 17.9435H17.1889V14.2526ZM17.1889 9.54693H21.2649C21.9783 9.54693 22.5603 10.1246 22.5603 10.8354C22.5603 11.5469 21.9783 12.1245 21.2649 12.1245H17.1889V9.54693ZM8.64433 14.2526H15.0514V20.0708H21.3838C23.4762 20.0708 25.1946 18.4624 25.3655 16.424C26.3871 18.6479 28.6379 20.199 31.2505 20.199C32.8194 20.199 34.2584 19.6416 35.3799 18.7138L34.0065 17.0857C33.2571 17.7013 32.2966 18.0717 31.2505 18.0717C28.8602 18.0717 26.9155 16.1363 26.9155 13.7568C26.9155 11.378 28.8602 9.44334 31.2505 9.44334C32.2966 9.44334 33.2571 9.81302 34.0065 10.4293L35.365 8.78783C34.2458 7.86788 32.8123 7.31539 31.2505 7.31539C27.6817 7.31539 24.778 10.2045 24.778 13.7568C24.778 13.8435 24.7878 13.9277 24.7907 14.013C24.5556 13.6314 24.258 13.2911 23.9112 13.0089C24.4016 12.418 24.6971 11.6609 24.6971 10.8354C24.6971 8.95252 23.1577 7.41899 21.2649 7.41899H15.0514V12.1245H8.64433V7.41899H6.50677V20.0708H8.64433V14.2526Z" fill="white"/>
</g>
</g>
<defs>
<clipPath id="clip0_2_178">
<rect width="41.5" height="27.5" fill="white" transform="translate(0.193481 0.00744629)"/>
</clipPath>
</defs>
</svg>
