<svg width="114" height="28" viewBox="0 0 114 28" fill="none" xmlns="http://www.w3.org/2000/svg">
<g clip-path="url(#clip0_2_188)">
<path d="M14.3998 19.2577C17.4415 19.2577 19.9078 16.7949 19.9078 13.7575C19.9078 10.7201 17.4415 8.25718 14.3998 8.25718C11.3582 8.25718 8.89191 10.7201 8.89191 13.7575C8.89191 16.7949 11.3582 19.2577 14.3998 19.2577ZM14.3998 0.00744629C21.9921 0.00744629 28.1691 6.17558 28.1691 13.7569C28.1691 21.3393 21.9922 27.5074 14.3998 27.5074C6.80742 27.508 0.630371 21.3393 0.630371 13.7569C0.630371 6.17558 6.80739 0.00744629 14.3998 0.00744629ZM108.407 18.2352H106.115V10.7496H108.332V11.6081C108.739 10.9 109.659 10.5537 110.428 10.5537C112.313 10.5537 113.158 11.8941 113.158 13.5359V18.2352H110.866V13.9275C110.866 13.1894 110.473 12.6322 109.644 12.6322C108.89 12.6322 108.407 13.1894 108.407 13.9425V18.2352ZM102.106 18.2352V10.7496H104.399V18.2352H102.106ZM103.237 7.11958C103.991 7.11958 104.595 7.72208 104.595 8.45994C104.595 9.19809 103.991 9.80075 103.237 9.80075C102.513 9.80075 101.91 9.19809 101.91 8.45994C101.91 7.72208 102.513 7.11958 103.237 7.11958ZM100.709 16.0811C100.347 17.3768 99.1558 18.4612 97.2553 18.4612C95.1889 18.4612 93.3488 16.9852 93.3488 14.4698C93.3488 12.0599 95.1438 10.5235 97.0897 10.5235C99.412 10.5235 100.845 11.9545 100.845 14.3643C100.845 14.6805 100.815 15.0272 100.8 15.0724H95.5809C95.626 15.9157 96.3953 16.5182 97.2855 16.5182C98.115 16.5182 98.5823 16.1264 98.7939 15.5393L100.709 16.0811H100.709ZM98.6278 13.5963C98.5975 13.0238 98.2055 12.3309 97.1193 12.3309C96.1541 12.3309 95.6715 13.039 95.6261 13.5963H98.6278ZM80.472 18.2352V10.7496H82.6589V11.6081C83.036 10.9452 84.0014 10.5235 84.8156 10.5235C85.8866 10.5235 86.6558 10.9604 87.033 11.6985C87.6209 10.8548 88.3452 10.5235 89.3557 10.5235C90.7736 10.5235 92.1309 11.3518 92.1309 13.3853V18.2352H89.9139V13.8973C89.9139 13.1894 89.5364 12.6322 88.7221 12.6322C87.9077 12.6322 87.4705 13.2496 87.4705 13.9125V18.2352H85.208V13.8973C85.208 13.1894 84.8307 12.6322 84.0014 12.6322C83.2019 12.6322 82.7642 13.2496 82.7642 13.9275V18.2352H80.472ZM79.2004 14.4848C79.2004 16.8043 77.4656 18.4613 75.2183 18.4613C72.9857 18.4613 71.2364 16.8043 71.2364 14.4848C71.2364 12.1654 72.9857 10.5235 75.2183 10.5235C77.4656 10.5235 79.2004 12.1654 79.2004 14.4848ZM76.9074 14.4848C76.9074 13.2194 76.0932 12.6323 75.2183 12.6323C74.3586 12.6323 73.5292 13.2195 73.5292 14.4848C73.5292 15.7349 74.3587 16.3524 75.2183 16.3524C76.0932 16.3524 76.9074 15.7499 76.9074 14.4848ZM69.9667 16.8947C69.9667 17.5723 70.0116 18.0694 70.0268 18.2352H67.8246C67.8094 18.1448 67.7643 17.8134 67.7643 17.5124C67.4174 18.0242 66.6631 18.4009 65.7583 18.4009C63.6466 18.4009 62.0479 16.7741 62.0479 14.4698C62.0479 12.2404 63.5561 10.5687 65.6826 10.5687C66.965 10.5687 67.5229 11.0507 67.7038 11.3367V7.3305H69.9666V16.8947H69.9667ZM66.045 16.3525C66.9349 16.3525 67.7341 15.7198 67.7341 14.4849C67.7341 13.2345 66.9349 12.6323 66.045 12.6323C65.1551 12.6323 64.3556 13.2345 64.3556 14.4849C64.3556 15.7197 65.1551 16.3525 66.045 16.3525ZM56.0933 18.2352H53.8006V10.7496H56.018V11.6081C56.4252 10.9 57.345 10.5537 58.1146 10.5537C59.9998 10.5537 60.8444 11.8941 60.8444 13.5359V18.2352H58.5517V13.9275C58.5517 13.1894 58.16 12.6322 57.33 12.6322C56.5756 12.6322 56.0933 13.1894 56.0933 13.9425V18.2352ZM50.9159 7.11953C51.6702 7.11953 52.2736 7.70702 52.2736 8.45988C52.2736 9.19819 51.6702 9.8007 50.9159 9.8007C50.192 9.8007 49.5888 9.19819 49.5888 8.45988C49.5888 7.70702 50.192 7.11953 50.9159 7.11953ZM49.7847 10.7496H52.0774V18.7774C52.0774 20.2836 51.1272 21.323 49.6039 21.323C48.8045 21.323 48.4424 21.1573 48.3367 21.1121V19.2143C48.4424 19.2444 48.6685 19.3047 49.0154 19.3047C49.5437 19.3047 49.7846 19.0032 49.7846 18.5364V10.7496L49.7847 10.7496ZM32.4423 18.2352V10.7496H34.6296V11.6081C35.0062 10.9452 35.9716 10.5235 36.7862 10.5235C37.8569 10.5235 38.6263 10.9604 39.0032 11.6985C39.5917 10.8548 40.3157 10.5235 41.3262 10.5235C42.7438 10.5235 44.1014 11.3518 44.1014 13.3853V18.2352H41.8841V13.8973C41.8841 13.1894 41.5072 12.6322 40.6926 12.6322C39.8779 12.6322 39.441 13.2496 39.441 13.9125V18.2352H37.1785V13.8973C37.1785 13.1894 36.8012 12.6322 35.9716 12.6322C35.1724 12.6322 34.735 13.2496 34.735 13.9275V18.2352H32.4422H32.4423ZM45.7749 18.2352V10.7496H48.0673V18.2352H45.7749ZM46.906 7.11958C47.6601 7.11958 48.2638 7.72208 48.2638 8.45994C48.2638 9.19809 47.6601 9.80075 46.906 9.80075C46.1821 9.80075 45.5787 9.19809 45.5787 8.45994C45.5787 7.72208 46.1821 7.11958 46.906 7.11958Z" fill="black"/>
</g>
<defs>
<clipPath id="clip0_2_188">
<rect width="113" height="27.5" fill="white" transform="translate(0.155823 0.00744629)"/>
</clipPath>
</defs>
</svg>
