<svg width="76" height="28" viewBox="0 0 76 28" fill="none" xmlns="http://www.w3.org/2000/svg">
<g clip-path="url(#clip0_2_167)">
<path d="M17.3397 14.5605C13.1549 7.44791 8.72482 0.0402832 8.72482 0.0402832H8.28345H1.17251H0.73114V27.5075H8.28345V12.4628L16.8983 27.5075C16.8983 27.5075 17.0781 27.5075 17.3397 27.5075H24.892V0.0402832H17.3397V14.5605Z" fill="black"/>
<path d="M75.7311 6.41543V0.0402832H62.3102H59.237H54.7579V27.5075H62.3102V18.3955H72.7233V12.0203H62.3102V6.41543H75.7311Z" fill="black"/>
<path d="M53.0252 27.5075L46.7806 17.6088C46.9604 17.4941 48.448 16.0847 49.4125 14.9702C50.7366 13.4297 52.0607 11.5122 52.1751 8.72619C52.3713 4.12101 49.1673 -0.123632 42.0073 0.0074765H28.2595V27.4747H35.8118V6.34985H41.4188C43.8218 6.34985 44.8353 7.20205 44.8353 8.67702C44.8353 9.46367 44.5247 10.4962 41.5659 13.4625C40.438 14.5933 37.9369 16.986 37.9369 16.986L37.9205 17.0024L44.6065 27.5075" fill="black"/>
<path d="M63.2094 25.8686C63.2094 24.9509 63.945 24.2134 64.8604 24.2134C65.7758 24.2134 66.4951 24.9509 66.4951 25.8522V25.8686C66.4951 26.77 65.7595 27.5239 64.844 27.5239C63.9286 27.5239 63.2094 26.77 63.2094 25.8686ZM66.3153 25.8522C66.3153 25.0328 65.6941 24.3773 64.8604 24.3773C64.0267 24.3773 63.4055 25.0328 63.4055 25.8522V25.8686C63.4055 26.6717 64.0267 27.3272 64.8604 27.3272C65.6941 27.3272 66.3153 26.6553 66.3153 25.8522ZM64.1738 24.9345H64.9585C65.2037 24.9345 65.3835 25 65.4979 25.1311C65.596 25.2295 65.6451 25.3606 65.6451 25.5081V25.5245C65.6451 25.8031 65.4816 25.9833 65.2691 26.0653L65.6941 26.6881H65.2364L64.8604 26.1308H64.5498V26.6881H64.1575L64.1738 24.9345ZM64.9585 25.7867C65.1546 25.7867 65.2527 25.6884 65.2527 25.5409V25.5245C65.2527 25.3606 65.1383 25.2622 64.9421 25.2622H64.5661V25.7703H64.9585V25.7867Z" fill="black"/>
</g>
<defs>
<clipPath id="clip0_2_167">
<rect width="75" height="27.5" fill="white" transform="translate(0.73114 0.00744629)"/>
</clipPath>
</defs>
</svg>
